<?xml version="1.0" encoding="utf-8"?>
<!-- Generator: Adobe Illustrator 19.0.0, SVG Export Plug-In . SVG Version: 6.00 Build 0)  -->
<svg version="1.1" id="Warstwa_3" xmlns="http://www.w3.org/2000/svg" xmlns:xlink="http://www.w3.org/1999/xlink" x="0px" y="0px"
	 viewBox="-229 357.7 135.6 127.2" style="enable-background:new -229 357.7 135.6 127.2;" xml:space="preserve">
<style type="text/css">
	.st0{fill:#FFFFFF;}
</style>
<path id="XMLID_61_" d="M-128.4,424.6c-8.8,8.9-21.8,10.1-29.1,2.7s-6.2-20.4,2.4-29.1c8.8-8.9,21.8-10.1,29.1-2.7
	C-118.6,402.8-119.7,415.8-128.4,424.6z"/>
<path id="XMLID_62_" d="M-129.3,424.6c-8.5,8.6-21.1,10.1-28.1,3.1c-7-6.9-5.7-19.5,2.7-28.1c8.5-8.6,21.1-10.1,28.1-3.1
	C-119.6,403.4-120.8,416-129.3,424.6z"/>
<polygon id="XMLID_63_" points="-157.9,426.3 -162.6,427.5 -158.3,431.3 -156.7,426.4 "/>
<path id="XMLID_88_" class="st0" d="M-140.7,397.9c-0.3-0.5-0.7-1-1.1-1.5s-1.3-0.9-1.9-0.7c-3.1,0.9-6.1,2.7-8.8,5.4
	c-3.4,3.4-5.4,7.7-5.8,11.7c-0.1,0.7,0.1,0.7,0.3,0.1c1.1-2.6,2.7-5.1,4.9-7.4c3.4-3.4,7.5-5.6,11.7-6.3
	C-140.6,399-140.4,398.5-140.7,397.9z"/>
<path id="XMLID_89_" class="st0" d="M-126.3,403.9c0.4,0.5,0.7,0.4,0.4-0.2c-0.7-1.8-1.6-3.5-3.1-4.8c-2.6-2.6-6.1-3.8-9.8-3.8
	c-0.7,0-0.9,0.4-0.4,1.1c0.3,0.5,0.7,1.1,1,1.6c0.3,0.5,1,1.1,1.8,1.1c3.6,0.2,7,1.6,9.6,4.2C-126.8,403.3-126.6,403.5-126.3,403.9z
	"/>
<path id="XMLID_90_" d="M-187.9,418.7c-1.9-1-3.6-2.3-5.1-3.8c-7.7-7.8-7.7-20.1-0.1-27.5c7.5-7.3,19.9-7,27.5,0.9
	c7.7,7.8,7.7,20.1,0.1,27.5c-1.2,1.2-2.6,2.2-4,3l0.3,0.3c0.7,0.7,1.2,1.4,1.6,2.2c1.5-0.9,3-2,4.3-3.2c8.8-8.5,8.8-22.8-0.1-31.8
	c-8.9-9.1-23.1-9.5-31.8-1c-8.8,8.5-8.8,22.8,0.1,31.8c1.5,1.5,3.2,2.8,4.8,3.8l0.3-0.3C-189.3,419.8-188.6,419.3-187.9,418.7z"/>
<path id="XMLID_91_" d="M-169.5,418.7c1.4-0.8,2.8-1.8,4-3c7.5-7.3,7.5-19.6-0.1-27.5c-7.7-7.8-19.9-8.2-27.5-0.9
	c-7.5,7.3-7.5,19.6,0.1,27.5c1.5,1.6,3.3,2.8,5.1,3.8C-181.8,414.4-174.2,414.2-169.5,418.7z"/>
<path id="XMLID_92_" d="M-168.4,421.1c1.6-0.9,3.1-2,4.5-3.3c8.3-8.1,8.2-21.8-0.2-30.4c-8.5-8.8-22.2-9.2-30.5-1.1
	c-8.3,8.1-8.2,21.8,0.2,30.4c1.8,1.8,3.7,3.2,5.8,4.3C-182.1,416.3-173.5,416.2-168.4,421.1z"/>
<path id="XMLID_93_" d="M-169.5,418.7c-0.7,0.4-1.4,0.8-2.2,1c0.3,0.2,0.7,0.5,0.9,0.8c0.5,0.5,1,1.1,1.3,1.6c0.7-0.3,1.3-0.7,2-1
	c-0.4-0.8-1-1.5-1.6-2.2L-169.5,418.7z"/>
<path id="XMLID_94_" d="M-185.9,419.6c-0.7-0.2-1.3-0.5-2-0.9c-0.8,0.5-1.4,1.1-2.2,1.8l-0.3,0.3c0.5,0.3,1.1,0.7,1.6,0.9
	C-187.8,420.9-186.9,420.2-185.9,419.6z"/>
<path id="XMLID_95_" d="M-171.7,419.7c0.8-0.3,1.4-0.7,2.2-1c-4.6-4.4-12.3-4.3-18.3,0c0.7,0.3,1.3,0.7,2,0.9
	C-181.1,416.7-175.4,416.7-171.7,419.7z"/>
<path id="XMLID_96_" d="M-171.7,419.7c0.8-0.3,1.4-0.7,2.2-1c-4.6-4.4-12.3-4.3-18.3,0c0.7,0.3,1.3,0.7,2,0.9
	C-181.1,416.7-175.4,416.7-171.7,419.7z"/>
<path id="XMLID_97_" d="M-171.7,419.7c-4.5,1.8-9.6,1.8-14.2-0.1c-1,0.5-1.9,1.3-2.7,2.1c6,3,13.1,3.2,19.1,0.4
	c-0.4-0.5-0.8-1.1-1.3-1.6C-171.1,420.2-171.3,419.9-171.7,419.7z"/>
<path id="XMLID_98_" d="M-171.7,419.7c-3.7-3.1-9.4-3-14.2-0.1C-181.3,421.4-176.2,421.5-171.7,419.7z"/>
<path id="XMLID_99_" d="M-171.7,419.7c-3.7-3.1-9.4-3-14.2-0.1C-181.3,421.4-176.2,421.5-171.7,419.7z"/>
<path id="XMLID_100_" d="M-171.4,439.6c5.6-5.4,7-13,3.8-18.5c-0.7,0.3-1.3,0.7-2,1c2.8,4.7,1.6,11.5-3.2,16.2
	c-5.5,5.3-13.5,5.9-17.9,1.3c-4.4-4.6-3.6-12.6,1.9-17.8l0.1-0.1c-0.5-0.3-1.1-0.5-1.6-0.9c-6,6.1-6.9,15.1-1.9,20.4
	C-187,446.4-177.7,445.8-171.4,439.6z"/>
<path id="XMLID_101_" d="M-169.5,418.7c-0.7,0.4-1.4,0.8-2.2,1c0.3,0.2,0.7,0.5,0.9,0.8c0.5,0.5,1,1.1,1.3,1.6c0.7-0.3,1.3-0.7,2-1
	c-0.4-0.8-1-1.5-1.6-2.2L-169.5,418.7z"/>
<path id="XMLID_102_" d="M-185.9,419.6c-0.7-0.2-1.3-0.5-2-0.9c-0.8,0.5-1.4,1.1-2.2,1.8l-0.3,0.3c0.5,0.3,1.1,0.7,1.6,0.9
	C-187.8,420.9-186.9,420.2-185.9,419.6z"/>
<path id="XMLID_103_" d="M-171.7,419.7c0.8-0.3,1.4-0.7,2.2-1c-4.6-4.4-12.3-4.3-18.3,0c0.7,0.3,1.3,0.7,2,0.9
	C-181.1,416.7-175.4,416.7-171.7,419.7z"/>
<polygon id="XMLID_104_" points="-192.3,440.4 -195.7,441.2 -192.7,443.9 -191.5,440.4 "/>
<path id="XMLID_105_" d="M-170.8,419.2c-4-3.2-10.2-3.1-15.3,0.1C-181.2,421.2-175.7,421.1-170.8,419.2z"/>
<path id="XMLID_106_" d="M-189.1,421.7L-189.1,421.7c-6,5.9-7.1,14.4-2.4,19.4c4.7,4.8,13.3,4.2,19.4-1.6c5.3-5.1,6.7-12.5,3.6-17.5
	C-175,424.9-182.6,424.8-189.1,421.7z"/>
<path id="XMLID_107_" d="M-170.8,419.2c-4.9,2-10.4,2-15.3,0.1c-1.1,0.7-2.1,1.4-3,2.3c6.5,3.1,14.1,3.2,20.6,0.2
	c-0.4-0.7-0.9-1.2-1.4-1.8C-170.1,419.7-170.5,419.5-170.8,419.2z"/>
<path id="XMLID_108_" d="M-170.5,421c0.4,0.4,0.8,0.9,1,1.3c0.3-0.1,0.7-0.2,1-0.4c-0.4-0.7-0.9-1.2-1.4-1.8c-0.3-0.3-0.7-0.5-1-0.9
	c-0.4,0.2-0.9,0.3-1.3,0.4C-171.4,420-171,420.5-170.5,421z"/>
<path id="XMLID_109_" d="M-184.7,419.8c-0.4-0.1-0.9-0.3-1.3-0.4c-1.1,0.7-2.1,1.4-3,2.3c0.3,0.1,0.7,0.3,1.1,0.4
	C-187,421.1-185.9,420.4-184.7,419.8z"/>
<path id="XMLID_110_" class="st0" d="M-188.1,422.6c-2.4,2.4-3.9,5.4-4.3,8.2c-0.1,0.4,0,0.4,0.2,0.1c0.8-1.9,2.1-3.6,3.6-5.1
	c1.1-1,2.2-1.9,3.5-2.5c-0.9-0.2-1.8-0.5-2.6-1C-187.8,422.3-188,422.5-188.1,422.6z"/>
<path id="XMLID_111_" d="M-179.7,420.9c-1.6-0.1-3.4-0.4-5-0.9c-1.1,0.5-2.1,1.3-3.1,2.1c0.9,0.3,1.8,0.7,2.6,1
	c1.6-0.9,3.3-1.5,4.9-1.8C-179.9,421.4-179.7,421.1-179.7,420.9z"/>
<path id="XMLID_112_" d="M-179.7,420.5c-0.2-0.3-0.4-0.8-0.8-1.1c-0.3-0.3-0.9-0.5-1.3-0.4c-1,0.2-1.9,0.7-2.8,1.1
	c1.6,0.5,3.3,0.9,5,0.9C-179.5,420.8-179.7,420.7-179.7,420.5z"/>
<path id="XMLID_113_" class="st0" d="M-170.1,424.3c0.2,0.2,0.4,0.4,0.5,0.7c0.3,0.3,0.4,0.3,0.3-0.1c-0.3-0.8-0.7-1.5-1.1-2.3
	c-0.4,0.2-0.9,0.3-1.3,0.4C-171.1,423.3-170.6,423.8-170.1,424.3z"/>
<path id="XMLID_139_" d="M-172.9,420c-1.5,0.4-3.1,0.8-4.7,0.9c0.2,0.1,0.4,0.2,0.7,0.2c1.9,0.2,3.6,0.8,5.1,1.8
	c0.4-0.1,0.9-0.3,1.3-0.4c-0.3-0.4-0.7-0.9-1-1.2C-171.9,420.8-172.3,420.5-172.9,420z"/>
<path id="XMLID_140_" d="M-172.9,420c-1.6-1.1-3.5-1.6-5.5-1.6c-0.4,0-0.7,0.3-0.3,0.8c0.2,0.3,0.4,0.8,0.7,1.2
	c0.1,0.2,0.3,0.4,0.5,0.5C-175.9,420.8-174.4,420.6-172.9,420z"/>
<path id="XMLID_141_" class="st0" d="M-179.3,386.9c-0.4-0.7-0.9-1.2-1.3-1.9c-0.5-0.7-1.5-1.1-2.2-1c-3.4,0.5-6.6,2.1-9.1,4.6
	c-3.4,3.3-5.1,7.7-5.3,12.1c0,0.7,0.1,0.8,0.3,0.1c1-2.7,2.5-5.4,4.7-7.4c3.4-3.3,7.8-5.1,12.3-5.4
	C-179.1,388.1-178.9,387.5-179.3,386.9z"/>
<path id="XMLID_142_" class="st0" d="M-162.9,395.4c0.5,0.7,0.7,0.5,0.4-0.2c-0.9-2.1-2.2-4-3.8-5.8c-3.2-3.2-7.1-5-11.3-5.6
	c-0.8-0.1-0.9,0.4-0.4,1.1c0.4,0.7,0.9,1.3,1.2,2c0.4,0.7,1.2,1.3,2,1.5c4,0.8,7.9,2.7,10.9,5.9
	C-163.6,394.7-163.2,395.1-162.9,395.4z"/>
<polygon id="XMLID_143_" points="-194.4,415.8 -201,416.5 -195.5,423.7 "/>
<path id="XMLID_144_" d="M-131.6,459.2c-8.5,8.8-21.3,10-28.6,3c-7.3-7.1-6.2-19.9,2.2-28.7c8.5-8.8,21.3-10.1,28.6-3
	C-122.1,437.7-123.1,450.5-131.6,459.2z"/>
<path id="XMLID_145_" d="M-132.5,458.8c-7.9,8.1-19.8,9.4-26.6,2.7c-6.8-6.6-5.8-18.5,2.2-26.6c7.9-8.1,19.8-9.4,26.6-2.7
	C-123.6,438.8-124.6,450.7-132.5,458.8z"/>
<polygon id="XMLID_146_" points="-160.5,461.1 -165,462.3 -160.8,466 -159.2,461.1 "/>
<path id="XMLID_147_" class="st0" d="M-143.8,433.1c-0.3-0.5-0.7-1-1.1-1.4c-0.4-0.5-1.3-0.8-1.9-0.7c-3.1,0.9-6,2.7-8.5,5.3
	c-3.3,3.4-5.1,7.5-5.6,11.5c-0.1,0.7,0.1,0.7,0.3,0.1c1.1-2.6,2.6-5.1,4.8-7.3c3.3-3.4,7.3-5.5,11.4-6.3
	C-143.7,434.2-143.4,433.6-143.8,433.1z"/>
<path id="XMLID_148_" class="st0" d="M-129.5,438.9c0.4,0.5,0.5,0.4,0.3-0.2c-0.7-1.8-1.6-3.4-3.1-4.7c-2.6-2.5-6-3.7-9.7-3.7
	c-0.7,0-0.9,0.4-0.4,1c0.3,0.5,0.7,1.1,1,1.6c0.3,0.5,1,1.1,1.6,1.1c3.5,0.2,6.9,1.5,9.4,4C-130.1,438.2-129.9,438.5-129.5,438.9z"
	/>
<g id="XMLID_2_">
	<polygon id="XMLID_56_" points="-102.2,479.9 -102.2,477.7 -217.6,477.7 -217.6,364.6 -104.4,364.6 -104.4,479.9 -102.2,479.9 
		-102.2,477.7 -102.2,479.9 -100,479.9 -100,360.2 -222,360.2 -222,482.1 -100,482.1 -100,479.9 	"/>
</g>
</svg>
