<?xml version="1.0" encoding="utf-8"?>
<!-- Generator: Adobe Illustrator 19.0.0, SVG Export Plug-In . SVG Version: 6.00 Build 0)  -->
<svg version="1.1" id="Warstwa_3" xmlns="http://www.w3.org/2000/svg" xmlns:xlink="http://www.w3.org/1999/xlink" x="0px" y="0px"
	 viewBox="0 0 135.6 127.2" style="enable-background:new 0 0 135.6 127.2;" xml:space="preserve">
<style type="text/css">
	.st0{fill:#384F40;}
	.st1{fill:#FFFFFF;}
</style>
<path id="XMLID_61_" class="st0" d="M100.7,66.6c-8.9,9-22.1,10.2-29.6,2.8c-7.5-7.4-6.4-20.6,2.5-29.6c8.9-9,22.1-10.2,29.6-2.8
	C110.7,44.4,109.6,57.7,100.7,66.6z"/>
<path id="XMLID_62_" class="st0" d="M99.8,66.6c-8.6,8.8-21.4,10.2-28.5,3.2c-7.1-7-5.8-19.8,2.8-28.5c8.7-8.7,21.4-10.2,28.5-3.2
	C109.7,45.1,108.5,57.9,99.8,66.6z"/>
<polygon id="XMLID_63_" class="st0" points="70.8,68.4 66.1,69.6 70.4,73.5 72.1,68.4 "/>
<path id="XMLID_88_" class="st1" d="M88.3,39.5c-0.3-0.5-0.7-1-1.1-1.5c-0.4-0.5-1.3-0.8-1.9-0.6c-3.2,0.9-6.3,2.7-8.9,5.4
	c-3.4,3.5-5.4,7.7-5.9,11.9c-0.1,0.7,0.1,0.7,0.3,0.1c1.1-2.7,2.8-5.3,5-7.5c3.5-3.5,7.7-5.7,11.9-6.4
	C88.4,40.6,88.7,40.1,88.3,39.5z"/>
<path id="XMLID_89_" class="st1" d="M102.9,45.6c0.4,0.5,0.6,0.4,0.4-0.2c-0.7-1.8-1.7-3.5-3.1-4.9c-2.7-2.6-6.2-3.9-10-3.9
	c-0.7,0-0.9,0.5-0.5,1.1c0.4,0.5,0.7,1.1,1,1.7c0.3,0.6,1.1,1.1,1.7,1.1c3.7,0.2,7.1,1.6,9.7,4.2C102.4,45,102.7,45.3,102.9,45.6z"
	/>
<path id="XMLID_90_" class="st0" d="M40.4,60.7c-1.9-1-3.7-2.3-5.2-3.9c-7.7-7.9-7.8-20.4-0.1-27.9c7.7-7.5,20.2-7.1,27.9,0.8
	c7.7,7.9,7.8,20.4,0.1,27.9c-1.2,1.2-2.6,2.2-4.1,3l0.3,0.3c0.7,0.7,1.2,1.4,1.7,2.2c1.5-0.9,3-2,4.3-3.3c8.9-8.6,8.9-23.1-0.1-32.3
	c-9-9.2-23.4-9.6-32.3-1C24,35.3,24.1,49.7,33,58.9c1.5,1.5,3.2,2.8,4.9,3.9l0.3-0.3C39,61.8,39.7,61.2,40.4,60.7z"/>
<path id="XMLID_91_" class="st0" d="M59,60.6c1.5-0.8,2.8-1.8,4.1-3c7.7-7.5,7.6-19.9-0.1-27.9c-7.7-7.9-20.2-8.3-27.9-0.8
	c-7.7,7.5-7.6,19.9,0.1,27.9c1.6,1.6,3.3,2.9,5.2,3.9C46.6,56.3,54.4,56.2,59,60.6z"/>
<path id="XMLID_92_" class="st0" d="M60.2,63.2c1.6-0.9,3.1-2,4.5-3.3c8.5-8.2,8.4-22.1-0.3-30.9c-8.6-8.8-22.5-9.3-31-1.1
	C25,36,25.1,49.9,33.7,58.7c1.8,1.8,3.7,3.2,5.8,4.4C46.3,58.2,55,58.2,60.2,63.2z"/>
<path id="XMLID_93_" class="st0" d="M59,60.6c-0.7,0.4-1.4,0.7-2.2,1c0.3,0.3,0.6,0.5,0.9,0.8c0.5,0.5,0.9,1.1,1.3,1.7
	c0.7-0.3,1.3-0.6,2-1c-0.5-0.8-1-1.5-1.7-2.2L59,60.6z"/>
<path id="XMLID_94_" class="st0" d="M42.4,61.6c-0.7-0.3-1.3-0.6-2-0.9c-0.8,0.5-1.5,1.1-2.2,1.8L38,62.8c0.6,0.3,1.1,0.6,1.7,0.9
	C40.5,62.9,41.5,62.2,42.4,61.6z"/>
<path id="XMLID_95_" class="st0" d="M56.9,61.7c0.7-0.3,1.5-0.6,2.2-1c-4.7-4.5-12.5-4.4-18.6,0c0.7,0.3,1.3,0.6,2,0.9
	C47.3,58.6,53,58.6,56.9,61.7z"/>
<path id="XMLID_96_" class="st0" d="M56.9,61.7c0.7-0.3,1.5-0.6,2.2-1c-4.7-4.5-12.5-4.4-18.6,0c0.7,0.3,1.3,0.6,2,0.9
	C47.3,58.6,53,58.6,56.9,61.7z"/>
<path id="XMLID_97_" class="st0" d="M56.9,61.7c-4.6,1.8-9.7,1.8-14.4-0.1c-1,0.6-1.9,1.3-2.8,2.1c6.2,3,13.3,3.2,19.4,0.4
	c-0.4-0.6-0.8-1.2-1.3-1.7C57.5,62.2,57.2,61.9,56.9,61.7z"/>
<path id="XMLID_98_" class="st0" d="M56.9,61.7c-3.8-3.1-9.6-3-14.4-0.1C47.1,63.4,52.3,63.4,56.9,61.7z"/>
<path id="XMLID_99_" class="st0" d="M56.9,61.7c-3.8-3.1-9.6-3-14.4-0.1C47.1,63.4,52.3,63.4,56.9,61.7z"/>
<path id="XMLID_100_" class="st0" d="M57.1,81.9c5.6-5.4,7.1-13.3,3.9-18.7c-0.6,0.4-1.3,0.7-2,1c2.9,4.7,1.7,11.6-3.2,16.4
	c-5.5,5.4-13.7,6-18.2,1.3c-4.5-4.6-3.6-12.7,1.9-18.1l0.1-0.1c-0.6-0.3-1.1-0.6-1.7-0.9c-6.1,6.2-7,15.4-1.9,20.6
	C41.3,88.8,50.7,88.1,57.1,81.9z"/>
<path id="XMLID_101_" class="st0" d="M59,60.6c-0.7,0.4-1.4,0.7-2.2,1c0.3,0.3,0.6,0.5,0.9,0.8c0.5,0.5,0.9,1.1,1.3,1.7
	c0.7-0.3,1.3-0.6,2-1c-0.5-0.8-1-1.5-1.7-2.2L59,60.6z"/>
<path id="XMLID_102_" class="st0" d="M42.4,61.6c-0.7-0.3-1.3-0.6-2-0.9c-0.8,0.5-1.5,1.1-2.2,1.8L38,62.8c0.6,0.3,1.1,0.6,1.7,0.9
	C40.5,62.9,41.5,62.2,42.4,61.6z"/>
<path id="XMLID_103_" class="st0" d="M56.9,61.7c0.7-0.3,1.5-0.6,2.2-1c-4.7-4.5-12.5-4.4-18.6,0c0.7,0.3,1.3,0.6,2,0.9
	C47.3,58.6,53,58.6,56.9,61.7z"/>
<polygon id="XMLID_104_" class="st0" points="35.8,82.7 32.5,83.5 35.5,86.3 36.8,82.7 "/>
<path id="XMLID_105_" class="st0" d="M57.8,61.2c-4.1-3.3-10.3-3.1-15.5,0.1C47.2,63.2,52.8,63.2,57.8,61.2z"/>
<path id="XMLID_106_" class="st0" d="M39.2,63.6l-0.1,0.1C33,69.6,32,78.4,36.8,83.3c4.8,4.9,13.6,4.2,19.6-1.7
	c5.4-5.2,6.8-12.7,3.7-17.7C53.5,66.9,45.8,66.8,39.2,63.6z"/>
<path id="XMLID_107_" class="st0" d="M57.8,61.2c-5,2-10.5,2-15.5,0.1c-1.1,0.7-2.1,1.4-3,2.4c6.6,3.2,14.3,3.2,20.9,0.2
	c-0.4-0.6-0.9-1.3-1.4-1.8C58.4,61.7,58.1,61.5,57.8,61.2z"/>
<path id="XMLID_108_" class="st0" d="M58.1,63c0.4,0.4,0.7,0.8,1.1,1.3c0.3-0.1,0.7-0.3,1-0.4c-0.4-0.6-0.9-1.3-1.4-1.8
	c-0.3-0.3-0.6-0.6-1-0.9c-0.4,0.2-0.9,0.3-1.3,0.5C57,62,57.6,62.5,58.1,63z"/>
<path id="XMLID_109_" class="st0" d="M43.6,61.8c-0.5-0.1-0.9-0.3-1.4-0.5c-1.1,0.7-2.1,1.4-3,2.4c0.4,0.2,0.7,0.3,1.1,0.5
	C41.3,63.2,42.4,62.4,43.6,61.8z"/>
<path id="XMLID_110_" class="st1" d="M40.2,64.6c-2.5,2.4-4,5.4-4.4,8.4c-0.1,0.5,0,0.5,0.2,0.1c0.8-1.9,2.1-3.7,3.7-5.3
	c1.1-1,2.3-1.9,3.5-2.6c-0.9-0.3-1.8-0.6-2.6-1C40.5,64.3,40.4,64.4,40.2,64.6z"/>
<path id="XMLID_111_" class="st0" d="M48.8,62.9c-1.7-0.1-3.4-0.4-5.1-0.9c-1.1,0.6-2.1,1.3-3.1,2.1c0.9,0.4,1.7,0.7,2.6,1
	c1.6-0.9,3.3-1.5,5-1.8C48.6,63.3,48.7,63.2,48.8,62.9z"/>
<path id="XMLID_112_" class="st0" d="M48.7,62.5c-0.2-0.4-0.5-0.7-0.7-1.1c-0.3-0.4-0.9-0.6-1.4-0.5c-1,0.3-1.9,0.6-2.9,1.1
	c1.7,0.5,3.4,0.8,5.1,0.9C48.8,62.8,48.8,62.6,48.7,62.5z"/>
<path id="XMLID_113_" class="st1" d="M58.4,66.4c0.2,0.2,0.4,0.4,0.6,0.6c0.3,0.4,0.4,0.3,0.3-0.1c-0.3-0.8-0.7-1.6-1.2-2.3
	c-0.4,0.2-0.9,0.3-1.3,0.5C57.4,65.4,58,65.9,58.4,66.4z"/>
<path id="XMLID_139_" class="st0" d="M55.6,62.1c-1.5,0.5-3.1,0.8-4.7,0.9c0.2,0.1,0.5,0.2,0.7,0.3c1.9,0.2,3.7,0.8,5.2,1.8
	c0.4-0.1,0.9-0.3,1.3-0.5c-0.3-0.4-0.6-0.8-1-1.2C56.7,62.9,56.2,62.4,55.6,62.1z"/>
<path id="XMLID_140_" class="st0" d="M55.6,62.1c-1.6-1.1-3.5-1.6-5.6-1.6c-0.5,0-0.6,0.3-0.4,0.7c0.2,0.4,0.5,0.8,0.7,1.2
	c0.1,0.2,0.3,0.4,0.5,0.6C52.5,62.9,54.1,62.6,55.6,62.1z"/>
<path id="XMLID_141_" class="st1" d="M49.1,28.3c-0.4-0.6-0.9-1.2-1.3-1.8c-0.5-0.6-1.5-1.1-2.2-1c-3.4,0.6-6.6,2.2-9.3,4.7
	c-3.4,3.3-5.2,7.8-5.3,12.3c0,0.7,0.2,0.8,0.4,0.1c1-2.8,2.6-5.4,4.8-7.6c3.5-3.4,7.9-5.2,12.5-5.5C49.3,29.6,49.5,29,49.1,28.3z"/>
<path id="XMLID_142_" class="st1" d="M65.8,37c0.5,0.6,0.7,0.6,0.4-0.2c-0.9-2.1-2.2-4.1-3.9-5.8c-3.2-3.3-7.3-5.2-11.4-5.6
	c-0.7-0.1-0.9,0.4-0.4,1.1c0.4,0.6,0.9,1.3,1.2,2c0.4,0.7,1.3,1.4,2,1.5c4.1,0.8,8,2.8,11.1,6C65.1,36.3,65.5,36.7,65.8,37z"/>
<polygon id="XMLID_143_" class="st0" points="33.8,57.7 27.1,58.5 32.6,65.7 "/>
<path id="XMLID_144_" class="st0" d="M97.5,101.7c-8.6,8.8-21.6,10.2-29,3c-7.4-7.2-6.4-20.2,2.2-29.1c8.6-8.8,21.6-10.2,29-3
	C107.2,79.9,106.2,92.9,97.5,101.7z"/>
<path id="XMLID_145_" class="st0" d="M96.6,101.3c-8,8.2-20.1,9.5-27,2.8c-6.8-6.7-5.9-18.8,2.2-27c8-8.2,20.1-9.5,27-2.8
	C105.6,81,104.6,93.1,96.6,101.3z"/>
<polygon id="XMLID_146_" class="st0" points="68.2,103.6 63.6,104.9 67.9,108.6 69.5,103.7 "/>
<path id="XMLID_147_" class="st1" d="M85.2,75.2c-0.3-0.5-0.7-1-1.1-1.5c-0.4-0.5-1.3-0.8-1.9-0.6c-3.1,0.9-6.1,2.7-8.7,5.3
	c-3.3,3.4-5.3,7.6-5.7,11.7c-0.1,0.6,0.1,0.7,0.3,0.1c1.1-2.6,2.7-5.2,4.9-7.4c3.4-3.4,7.5-5.6,11.6-6.4
	C85.3,76.3,85.5,75.8,85.2,75.2z"/>
<path id="XMLID_148_" class="st1" d="M99.6,81.1c0.4,0.5,0.6,0.4,0.4-0.2c-0.7-1.8-1.7-3.4-3.1-4.8c-2.6-2.6-6.1-3.8-9.8-3.7
	c-0.7,0-0.8,0.5-0.5,1c0.4,0.5,0.7,1.1,1,1.6c0.3,0.6,1,1.1,1.7,1.1c3.6,0.2,7,1.6,9.6,4.1C99,80.5,99.3,80.8,99.6,81.1z"/>
<g id="XMLID_2_">
	<polygon id="XMLID_56_" class="st0" points="127.3,122.8 127.3,120.6 10.3,120.6 10.3,5.8 125.1,5.8 125.1,122.8 127.3,122.8 
		127.3,120.6 127.3,122.8 129.5,122.8 129.5,1.3 5.8,1.3 5.8,125 129.5,125 129.5,122.8 	"/>
</g>
</svg>
