<?xml version="1.0" encoding="utf-8"?>
<!-- Generator: Adobe Illustrator 19.0.0, SVG Export Plug-In . SVG Version: 6.00 Build 0)  -->
<svg version="1.1" id="Warstwa_2" xmlns="http://www.w3.org/2000/svg" xmlns:xlink="http://www.w3.org/1999/xlink" x="0px" y="0px"
	 viewBox="0 0 135.6 127.2" style="enable-background:new 0 0 135.6 127.2;" xml:space="preserve">
<style type="text/css">
	.st0{fill:#384F40;}
	.st1{fill:#FFFFFF;}
</style>
<path id="XMLID_5_" class="st0" d="M75.8,57.7c-0.2,17.9-12.5,32.3-27.4,32.1C33.4,89.7,21.5,75,21.8,57c0.2-18,12.5-32.3,27.4-32.1
	C64.1,25.1,76,39.8,75.8,57.7z"/>
<polygon id="XMLID_6_" class="st0" points="46.2,90.8 42.2,97.2 51.1,96.8 47.6,89.5 "/>
<path id="XMLID_7_" class="st1" d="M34.8,40.5c-0.9-0.2-1.9-0.4-2.8-0.5c-1-0.2-2.3,0.5-2.8,1.3c-2.5,4.4-4,9.6-4.1,15.3
	C25,64.1,27.4,70.9,31.3,76c0.6,0.8,0.8,0.7,0.5-0.3c-1.6-4.1-2.5-8.7-2.4-13.6c0.1-7.5,2.4-14.4,6.2-19.7
	C36.1,41.6,35.8,40.7,34.8,40.5z"/>
<path id="XMLID_8_" class="st1" d="M57.4,31.6c1,0.1,1.1-0.2,0.2-0.6c-2.7-1.3-5.6-2.1-8.7-2.1c-5.7-0.1-11,2.3-15.1,6.3
	c-0.7,0.7-0.4,1.5,0.6,1.7c1,0.2,1.9,0.5,2.8,0.8c1,0.3,2.3,0.1,3.1-0.5c4.3-3.6,9.6-5.7,15.2-5.6C56.2,31.5,56.8,31.6,57.4,31.6z"
	/>
<g id="XMLID_1_">
	<polygon id="XMLID_10_" class="st0" points="87.2,105 89.4,105 89.4,77.3 124.2,77.3 124.2,52.5 89.4,52.5 89.4,27.1 124.2,27.1 
		124.2,3.5 2.3,3.5 2.3,125.3 124.2,125.3 124.2,102.8 87.2,102.8 87.2,105 89.4,105 87.2,105 87.2,107.1 119.8,107.1 119.8,121 
		6.7,121 6.7,7.9 119.8,7.9 119.8,22.7 85,22.7 85,56.9 119.8,56.9 119.8,72.9 85,72.9 85,107.1 87.2,107.1 	"/>
	<polygon id="XMLID_11_" class="st0" points="132.4,47.9 132.4,45.7 98,45.7 98,34.9 130.2,34.9 130.2,47.9 132.4,47.9 132.4,45.7 
		132.4,47.9 134.6,47.9 134.6,30.5 93.7,30.5 93.7,50 134.6,50 134.6,47.9 	"/>
	<polygon id="XMLID_12_" class="st0" points="132.4,97.5 132.4,95.3 98,95.3 98,84.5 130.2,84.5 130.2,97.5 132.4,97.5 132.4,95.3 
		132.4,97.5 134.6,97.5 134.6,80.1 93.7,80.1 93.7,99.6 134.6,99.6 134.6,97.5 	"/>
</g>
</svg>
