<?xml version="1.0" encoding="utf-8"?>
<!-- Generator: Adobe Illustrator 19.0.0, SVG Export Plug-In . SVG Version: 6.00 Build 0)  -->
<svg version="1.1" id="Warstwa_2" xmlns="http://www.w3.org/2000/svg" xmlns:xlink="http://www.w3.org/1999/xlink" x="0px" y="0px"
	 viewBox="-229 357.7 135.6 127.2" style="enable-background:new -229 357.7 135.6 127.2;" xml:space="preserve">
<style type="text/css">
	.st0{fill:#FFFFFF;}
</style>
<path id="XMLID_5_" d="M-153.1,414.9c-0.2,17.6-12.3,31.8-26.9,31.5c-14.6-0.2-26.3-14.7-26.1-32.3c0.2-17.6,12.3-31.6,26.9-31.5
	C-164.5,382.8-152.9,397.3-153.1,414.9z"/>
<polygon id="XMLID_6_" points="-182.2,447.4 -186,453.5 -177.4,453.2 -180.8,446 "/>
<path id="XMLID_7_" class="st0" d="M-193.2,397.9c-1-0.2-1.8-0.4-2.8-0.5s-2.3,0.4-2.8,1.3c-2.5,4.3-3.9,9.4-4,15
	c-0.1,7.3,2.1,14.1,6,19c0.6,0.8,0.9,0.6,0.4-0.2c-1.6-4.1-2.5-8.6-2.4-13.4c0.1-7.4,2.4-14.1,6.1-19.3
	C-192.1,399-192.3,398.2-193.2,397.9z"/>
<path id="XMLID_8_" class="st0" d="M-171.1,389.3c1,0.1,1.1-0.2,0.2-0.6c-2.6-1.3-5.5-2-8.5-2c-5.6-0.1-10.8,2.3-14.8,6.2
	c-0.8,0.8-0.4,1.4,0.5,1.6c1,0.2,1.8,0.4,2.8,0.8c1,0.3,2.3,0.1,3-0.5c4.2-3.5,9.3-5.6,14.9-5.6
	C-172.3,389.2-171.8,389.3-171.1,389.3z"/>
<g id="XMLID_1_">
	<polygon id="XMLID_10_" points="-142,461.2 -139.8,461.2 -139.8,434.1 -105.7,434.1 -105.7,409.7 -139.8,409.7 -139.8,384.8 
		-105.7,384.8 -105.7,361.7 -225.2,361.7 -225.2,481.2 -105.7,481.2 -105.7,459.1 -142,459.1 -142,461.2 -139.8,461.2 -142,461.2 
		-142,463.4 -110,463.4 -110,476.9 -220.9,476.9 -220.9,366 -110,366 -110,380.5 -144.1,380.5 -144.1,414 -110,414 -110,429.8 
		-144.1,429.8 -144.1,463.4 -142,463.4 	"/>
	<polygon id="XMLID_11_" points="-97.5,405.2 -97.5,403.1 -131.2,403.1 -131.2,392.5 -99.7,392.5 -99.7,405.2 -97.5,405.2 
		-97.5,403.1 -97.5,405.2 -95.4,405.2 -95.4,388.2 -135.5,388.2 -135.5,407.4 -95.4,407.4 -95.4,405.2 	"/>
	<polygon id="XMLID_12_" points="-97.5,453.8 -97.5,451.7 -131.2,451.7 -131.2,441.2 -99.7,441.2 -99.7,453.8 -97.5,453.8 
		-97.5,451.7 -97.5,453.8 -95.4,453.8 -95.4,436.9 -135.5,436.9 -135.5,456 -95.4,456 -95.4,453.8 	"/>
</g>
</svg>
