<?xml version="1.0" encoding="utf-8"?>
<!-- Generator: Adobe Illustrator 19.0.0, SVG Export Plug-In . SVG Version: 6.00 Build 0)  -->
<svg version="1.1" id="Warstwa_1" xmlns="http://www.w3.org/2000/svg" xmlns:xlink="http://www.w3.org/1999/xlink" x="0px" y="0px"
	 viewBox="0 0 425.2 425.2" style="enable-background:new 0 0 425.2 425.2;" xml:space="preserve">
<style type="text/css">
	.st0{fill:#FFFFFF;stroke:#000000;stroke-miterlimit:10;}
	.st1{fill:#034EA2;}
	.st2{fill:#FFFFFF;}
	.st3{fill:url(#SVGID_1_);}
	.st4{fill:#E9C31E;}
	.st5{fill:url(#SVGID_2_);}
	.st6{fill:url(#SVGID_3_);}
	.st7{fill:url(#SVGID_4_);}
	.st8{fill:url(#SVGID_5_);}
	.st9{fill:url(#SVGID_6_);}
	.st10{fill:url(#SVGID_7_);}
	.st11{fill:url(#SVGID_8_);}
	.st12{fill:#DA2128;}
	.st13{fill:#F3C716;}
	.st14{fill:#008C44;}
	.st15{fill:#023F88;stroke:#03428E;stroke-miterlimit:10;}
	.st16{fill:#023F88;}
	.st17{fill-rule:evenodd;clip-rule:evenodd;fill:#C72127;}
	.st18{fill-rule:evenodd;clip-rule:evenodd;fill:#FFF200;}
	.st19{fill-rule:evenodd;clip-rule:evenodd;}
	.st20{fill-rule:evenodd;clip-rule:evenodd;fill:#D4EFFC;}
	.st21{fill:#BFE7FB;}
	.st22{fill-rule:evenodd;clip-rule:evenodd;fill:#F15A22;}
	.st23{fill-rule:evenodd;clip-rule:evenodd;fill:#F58220;}
	.st24{fill-rule:evenodd;clip-rule:evenodd;stroke:#000000;stroke-width:0.5669;stroke-miterlimit:22.9256;}
	.st25{fill-rule:evenodd;clip-rule:evenodd;fill:#BCBEC0;}
	.st26{fill-rule:evenodd;clip-rule:evenodd;fill:#FFFFFF;}
	.st27{fill-rule:evenodd;clip-rule:evenodd;fill:#BE1F24;}
	.st28{fill-rule:evenodd;clip-rule:evenodd;fill:#00A651;}
	.st29{fill-rule:evenodd;clip-rule:evenodd;fill:#2E3192;}
</style>
<path class="st0" d="M361.7,213.9c0,95.1-77.1,172.2-172.2,172.2c-95.1,0-172.2-77.1-172.2-172.2c0-95.1,77.1-172.2,172.2-172.2
	C284.6,41.7,361.7,118.8,361.7,213.9z"/>
<g>
	<path d="M271.6,193.6c10.9-5.8,19.6-13.1,23.5-20.2c4.1-7,4.5-12.4,4.8-12.2c0,0,0,5.5-4,12.8c-3.9,7.4-12.6,15-23.6,20.8
		c-10.6,6.4-32.1,13.4-46.3,25.4c-7.1,6-11.3,13.7-12.7,20c-1.4,6.2-0.9,10.5-1,10.4c0.1,0-0.5-4.2,0.8-10.5
		c1.2-6.3,5.3-14.3,12.4-20.4C239.7,207.3,261.1,199.9,271.6,193.6z"/>
	<path d="M300.6,213.3c15-1.3,28.3-4.5,36.3-9.4c8.2-4.8,11.1-10.3,11.3-10c0.1-0.1-2.6,5.7-10.8,10.8c-8.1,5.2-21.5,8.6-36.6,9.9
		c-14.9,2-42.3,0.7-63.6,7.4c-10.6,3.3-18.4,10.3-21.5,16.9c-3.2,6.6-3.3,11.6-3.4,11.5c0.1,0.1,0.2-4.9,3.3-11.6
		c3-6.8,10.7-14,21.4-17.5C258.3,214.3,285.8,215.3,300.6,213.3z"/>
	<path d="M300.7,181c18.6-3.5,31.2-15.2,39.1-23.7c7.9-8.8,11.7-15.2,12-15c0.1,0-3.4,6.6-11.2,15.7c-7.8,8.7-20.4,20.8-39.4,24.4
		c-18.2,3.2-52.2,8.7-73,26.9c-10.4,8.9-15.4,21.2-16.6,30.6c-1.3,9.4-0.3,15.6-0.5,15.5c0.1,0-0.9-6.1,0.3-15.6
		c1-9.4,5.9-21.9,16.3-31.1C248.4,190,282.5,184.2,300.7,181z"/>
	<path d="M262.4,167.3c13.7-8.6,25.9-17.6,30.4-27.4c4.7-10-0.5-17.6,0.1-17.4c0,0,1.1,1.6,2,4.8c0.9,3.1,1,8.1-1.2,13.1
		c-4.4,10.2-16.7,19.4-30.4,28.1c-6.8,4.5-16.8,9.9-26.5,17.2c-9.6,7.4-17.9,18.1-22.8,29.4c-10.1,22.9-7.9,45.5-8.3,45.3
		c0.4,0.3-2.2-22.4,7.7-45.6c4.8-11.5,13-22.3,22.7-30C245.7,177.2,255.6,171.8,262.4,167.3z"/>
	<path d="M396.6,138.1c-13.7,13.8-34.2,15.8-45.7,4.4c-11.6-11.4-9.9-31.9,3.8-45.7c13.7-13.8,34.2-15.8,45.7-4.4
		C412,103.7,410.3,124.2,396.6,138.1z"/>
	<path class="st1" d="M395.1,138.1c-13.4,13.5-33.1,15.7-44.1,4.9c-11-10.8-9-30.6,4.4-44.1c13.4-13.5,33.1-15.7,44.1-4.9
		C410.5,104.8,408.5,124.5,395.1,138.1z"/>
	<polygon class="st1" points="350.3,140.8 343,142.7 349.7,148.6 352.3,140.8 	"/>
	<g>
		<path class="st2" d="M377.3,96.2c-0.5-0.8-1.1-1.6-1.7-2.4c-0.6-0.8-2-1.3-3-1c-4.9,1.4-9.7,4.2-13.7,8.3
			c-5.3,5.4-8.4,12-9.1,18.4c-0.1,1,0.1,1.1,0.5,0.1c1.7-4.1,4.3-8.1,7.8-11.6c5.3-5.4,11.8-8.7,18.3-9.9
			C377.5,97.9,377.9,97.1,377.3,96.2z"/>
		<path class="st2" d="M400,105.5c0.7,0.8,1,0.7,0.6-0.3c-1-2.8-2.6-5.4-4.8-7.6c-4.1-4.1-9.7-6-15.5-6c-1,0-1.3,0.8-0.8,1.6
			c0.5,0.8,1.1,1.7,1.5,2.6c0.5,0.9,1.6,1.7,2.7,1.8c5.7,0.4,11,2.5,15,6.5C399.1,104.6,399.6,105.1,400,105.5z"/>
	</g>
	<path d="M303.4,128.8c-2.9-1.5-5.7-3.5-8.1-6c-11.9-12.2-12-31.5-0.1-43c11.9-11.5,31.2-10.9,43.1,1.3c11.9,12.2,12,31.5,0.1,43
		c-1.9,1.9-4.1,3.4-6.3,4.6c0.2,0.2,0.3,0.3,0.5,0.5c1,1.1,1.9,2.2,2.6,3.4c2.4-1.4,4.6-3,6.7-5c13.8-13.3,13.7-35.7-0.1-49.9
		c-13.8-14.2-36.2-14.9-50-1.5c-13.8,13.4-13.7,35.7,0.1,49.9c2.3,2.4,4.9,4.4,7.6,6c0.2-0.2,0.3-0.3,0.5-0.5
		C301.1,130.6,302.3,129.7,303.4,128.8z"/>
	
		<radialGradient id="SVGID_1_" cx="694.1095" cy="-60.4718" r="77.0327" gradientTransform="matrix(0.5813 0.596 -0.5779 0.5608 -121.6014 -301.8437)" gradientUnits="userSpaceOnUse">
		<stop  offset="0" style="stop-color:#FCD7D5"/>
		<stop  offset="1" style="stop-color:#DD66A6"/>
	</radialGradient>
	<path class="st3" d="M332.2,128.8c2.3-1.2,4.4-2.8,6.3-4.6c11.9-11.5,11.8-30.8-0.1-43c-11.9-12.2-31.3-12.8-43.1-1.3
		c-11.9,11.5-11.8,30.8,0.1,43c2.4,2.5,5.2,4.5,8.1,6C312.9,122.1,324.9,121.9,332.2,128.8z"/>
	<path class="st4" d="M333.9,132.7c2.5-1.4,4.9-3.1,7-5.1c13.1-12.7,12.9-34.1-0.4-47.8c-13.3-13.7-34.8-14.4-47.9-1.7
		c-13.1,12.7-12.9,34.1,0.4,47.8c2.7,2.8,5.8,5,9,6.7C312.4,125.1,325.8,125,333.9,132.7z"/>
	
		<radialGradient id="SVGID_2_" cx="694.067" cy="-60.4652" r="77.0657" gradientTransform="matrix(0.5813 0.596 -0.5779 0.5608 -121.6014 -301.8437)" gradientUnits="userSpaceOnUse">
		<stop  offset="0" style="stop-color:#FCD7D5"/>
		<stop  offset="1" style="stop-color:#DD66A6"/>
	</radialGradient>
	<path class="st5" d="M332.2,128.8c-1.1,0.6-2.2,1.1-3.4,1.6c0.5,0.4,0.9,0.8,1.4,1.3c0.8,0.8,1.5,1.7,2,2.6c1-0.5,2.1-1,3-1.5
		c-0.7-1.2-1.6-2.4-2.6-3.4C332.5,129.1,332.3,128.9,332.2,128.8z"/>
	
		<radialGradient id="SVGID_3_" cx="694.1096" cy="-60.4406" r="76.9981" gradientTransform="matrix(0.5813 0.596 -0.5779 0.5608 -121.6014 -301.8437)" gradientUnits="userSpaceOnUse">
		<stop  offset="0" style="stop-color:#FCD7D5"/>
		<stop  offset="1" style="stop-color:#DD66A6"/>
	</radialGradient>
	<path class="st6" d="M306.5,130.3c-1-0.4-2.1-0.9-3.1-1.4c-1.2,0.8-2.3,1.8-3.4,2.8c-0.2,0.2-0.3,0.3-0.5,0.5
		c0.9,0.5,1.7,1,2.6,1.4C303.5,132.3,305,131.2,306.5,130.3z"/>
	
		<radialGradient id="SVGID_4_" cx="694.1115" cy="-60.483" r="77.0332" gradientTransform="matrix(0.5813 0.596 -0.5779 0.5608 -121.6014 -301.8437)" gradientUnits="userSpaceOnUse">
		<stop  offset="0" style="stop-color:#FCD7D5"/>
		<stop  offset="1" style="stop-color:#DD66A6"/>
	</radialGradient>
	<path class="st7" d="M328.8,130.4c1.2-0.4,2.3-1,3.4-1.6c-7.2-6.9-19.3-6.7-28.7,0.1c1,0.5,2,1,3.1,1.4
		C314,125.7,322.9,125.6,328.8,130.4z"/>
	
		<radialGradient id="SVGID_5_" cx="706.594" cy="-73.9783" r="103.1036" gradientTransform="matrix(0.5813 0.596 -0.5779 0.5608 -121.6014 -301.8437)" gradientUnits="userSpaceOnUse">
		<stop  offset="0" style="stop-color:#FCD7D5"/>
		<stop  offset="1" style="stop-color:#E67BB1"/>
	</radialGradient>
	<path class="st8" d="M328.8,130.4c1.2-0.4,2.3-1,3.4-1.6c-7.2-6.9-19.3-6.7-28.7,0.1c1,0.5,2,1,3.1,1.4
		C314,125.7,322.9,125.6,328.8,130.4z"/>
	
		<radialGradient id="SVGID_6_" cx="694.1124" cy="-60.4812" r="77.0335" gradientTransform="matrix(0.5813 0.596 -0.5779 0.5608 -121.6014 -301.8437)" gradientUnits="userSpaceOnUse">
		<stop  offset="0" style="stop-color:#FCD7D5"/>
		<stop  offset="1" style="stop-color:#DD66A6"/>
	</radialGradient>
	<path class="st9" d="M328.8,130.4c-7.1,2.8-15.1,2.7-22.3-0.1c-1.5,0.9-3,2-4.3,3.3c9.5,4.6,20.6,4.9,30,0.7
		c-0.6-0.9-1.2-1.8-2-2.6C329.7,131.2,329.3,130.8,328.8,130.4z"/>
	
		<radialGradient id="SVGID_7_" cx="694.1091" cy="-60.4852" r="77.0383" gradientTransform="matrix(0.5813 0.596 -0.5779 0.5608 -121.6014 -301.8437)" gradientUnits="userSpaceOnUse">
		<stop  offset="0" style="stop-color:#FCD7D5"/>
		<stop  offset="1" style="stop-color:#DD66A6"/>
	</radialGradient>
	<path class="st10" d="M328.8,130.4c-5.9-4.7-14.8-4.7-22.3-0.1C313.7,133.1,321.7,133.1,328.8,130.4z"/>
	
		<radialGradient id="SVGID_8_" cx="706.5917" cy="-73.9822" r="103.1132" gradientTransform="matrix(0.5813 0.596 -0.5779 0.5608 -121.6014 -301.8437)" gradientUnits="userSpaceOnUse">
		<stop  offset="0" style="stop-color:#FCD7D5"/>
		<stop  offset="1" style="stop-color:#E67BB1"/>
	</radialGradient>
	<path class="st11" d="M328.8,130.4c-5.9-4.7-14.8-4.7-22.3-0.1C313.7,133.1,321.7,133.1,328.8,130.4z"/>
	<path d="M329.2,161.6c8.7-8.4,10.9-20.5,6-28.9c-1,0.6-2,1.1-3,1.5c4.5,7.3,2.6,18-5,25.3c-8.6,8.3-21.2,9.2-28.1,2.1
		c-6.9-7.1-5.6-19.7,2.9-28c0,0,0.1-0.1,0.1-0.1c-0.9-0.4-1.8-0.9-2.6-1.4c-9.5,9.6-10.8,23.8-2.9,31.9
		C304.7,172.3,319.3,171.2,329.2,161.6z"/>
	<path d="M332.2,128.8c-1.1,0.6-2.2,1.1-3.4,1.6c0.5,0.4,0.9,0.8,1.4,1.3c0.8,0.8,1.5,1.7,2,2.6c1-0.5,2.1-1,3-1.5
		c-0.7-1.2-1.6-2.4-2.6-3.4C332.5,129.1,332.3,128.9,332.2,128.8z"/>
	<path d="M306.5,130.3c-1-0.4-2.1-0.9-3.1-1.4c-1.2,0.8-2.3,1.8-3.4,2.8c-0.2,0.2-0.3,0.3-0.5,0.5c0.9,0.5,1.7,1,2.6,1.4
		C303.5,132.3,305,131.2,306.5,130.3z"/>
	<path d="M328.8,130.4c1.2-0.4,2.3-1,3.4-1.6c-7.2-6.9-19.3-6.7-28.7,0.1c1,0.5,2,1,3.1,1.4C314,125.7,322.9,125.6,328.8,130.4z"/>
	<polygon class="st12" points="296.3,162.9 291.1,164.1 295.7,168.4 297.7,162.9 	"/>
	<g>
		<path class="st12" d="M330.2,129.6c-6.3-5-15.9-4.9-24,0.2C313.9,132.8,322.5,132.7,330.2,129.6z"/>
		<g>
			<g>
				<path class="st12" d="M301.5,133.4c-0.1,0-0.1,0.1-0.2,0.1c-9.4,9.1-10.9,22.6-3.5,30.2c7.4,7.6,21,6.5,30.4-2.6
					c8.3-8,10.5-19.6,5.7-27.4C323.6,138.5,311.7,138.3,301.5,133.4z"/>
				<path class="st12" d="M330.2,129.6c-7.7,3.1-16.3,3.1-24,0.2c-1.6,1-3.2,2.2-4.7,3.6c10.2,4.9,22.1,5,32.3,0.3
					c-0.6-1-1.3-1.9-2.2-2.8C331.2,130.5,330.7,130.1,330.2,129.6z"/>
			</g>
			<path class="st12" d="M330.6,132.4c0.6,0.6,1.2,1.3,1.6,2c0.5-0.2,1-0.4,1.5-0.7c-0.6-1-1.3-1.9-2.2-2.8c-0.5-0.5-1-0.9-1.5-1.3
				c-0.7,0.3-1.3,0.5-2,0.7C329,130.9,329.9,131.6,330.6,132.4z"/>
			<path class="st12" d="M308.3,130.5c-0.7-0.2-1.4-0.5-2.1-0.7c-1.6,1-3.2,2.2-4.7,3.6c0.5,0.3,1.1,0.5,1.6,0.7
				C304.7,132.7,306.5,131.5,308.3,130.5z"/>
		</g>
	</g>
	<path class="st2" d="M303,134.9c-3.9,3.7-6.1,8.4-6.7,12.9c-0.1,0.7,0.1,0.8,0.4,0.1c1.3-2.9,3.2-5.7,5.7-8.1
		c1.7-1.6,3.5-2.9,5.4-4c-1.4-0.4-2.7-0.9-4.1-1.5C303.5,134.5,303.3,134.7,303,134.9z"/>
	<path class="st2" d="M316.3,132.4c-2.6-0.1-5.3-0.6-7.8-1.4c-1.7,0.9-3.3,2-4.8,3.3c1.3,0.6,2.7,1.1,4.1,1.5
		c2.5-1.4,5.1-2.3,7.8-2.8C316,132.9,316.2,132.7,316.3,132.4z"/>
	<path class="st2" d="M316.2,131.6c-0.4-0.6-0.7-1.1-1.2-1.7c-0.4-0.6-1.4-0.9-2.1-0.8c-1.5,0.4-3,1-4.4,1.8
		c2.6,0.8,5.2,1.3,7.8,1.4C316.4,132.1,316.3,131.9,316.2,131.6z"/>
	<g>
		<path class="st2" d="M331.2,137.6c0.3,0.3,0.6,0.7,0.9,1c0.5,0.6,0.7,0.5,0.4-0.2c-0.4-1.3-1-2.5-1.8-3.6c-0.7,0.3-1.3,0.5-2,0.7
			C329.6,136.2,330.5,136.8,331.2,137.6z"/>
		<path class="st2" d="M326.9,131c-2.4,0.7-4.8,1.2-7.3,1.3c0.3,0.2,0.7,0.4,1.1,0.4c2.9,0.3,5.7,1.2,8.1,2.8c0.7-0.2,1.4-0.5,2-0.7
			c-0.4-0.7-1-1.3-1.5-1.9C328.5,132.2,327.7,131.6,326.9,131z"/>
		<path class="st2" d="M326.9,131c-2.5-1.7-5.5-2.5-8.6-2.5c-0.7,0-1,0.5-0.6,1.1c0.4,0.6,0.7,1.2,1,1.8c0.2,0.3,0.5,0.6,0.8,0.9
			C322.1,132.2,324.5,131.8,326.9,131z"/>
	</g>
	<g>
		<path class="st2" d="M316.7,78.9c-0.7-1-1.3-1.9-2.1-2.8c-0.8-1-2.4-1.7-3.4-1.5c-5.3,0.9-10.2,3.3-14.3,7.3
			c-5.3,5.2-8.1,12-8.3,19c0,1.1,0.2,1.2,0.6,0.2c1.5-4.3,4-8.4,7.4-11.7c5.4-5.2,12.2-8,19.2-8.4C317.1,80.8,317.4,79.9,316.7,78.9
			z"/>
		<path class="st2" d="M342.6,92.3c0.8,1,1.1,0.9,0.6-0.3c-1.4-3.3-3.4-6.3-6-9c-4.9-5.1-11.2-8-17.6-8.7c-1.1-0.1-1.4,0.6-0.7,1.7
			c0.7,1,1.3,2,1.9,3c0.6,1.1,2,2.1,3.1,2.3c6.3,1.2,12.3,4.3,17.2,9.3C341.6,91.2,342.1,91.7,342.6,92.3z"/>
	</g>
	<polygon class="st13" points="293.1,124.2 282.7,125.4 291.3,136.6 	"/>
	<path d="M391.7,192.3c-13.3,13.7-33.4,15.7-44.8,4.6c-11.4-11.1-9.9-31.3,3.5-44.9c13.3-13.7,33.4-15.7,44.8-4.6
		C406.5,158.5,405,178.6,391.7,192.3z"/>
	<path class="st14" d="M390.2,191.7c-12.4,12.7-31.1,14.7-41.7,4.4c-10.6-10.3-9.1-29,3.3-41.7c12.4-12.7,31.1-14.7,41.7-4.4
		C404.1,160.3,402.6,179,390.2,191.7z"/>
	<polygon class="st14" points="346.3,195.3 339.2,197.1 345.8,202.9 348.3,195.3 	"/>
	<g>
		<path class="st2" d="M372.5,151.3c-0.5-0.8-1.1-1.6-1.6-2.3c-0.6-0.8-2-1.2-2.9-1c-4.8,1.4-9.4,4.2-13.4,8.2
			c-5.2,5.3-8.1,11.8-8.8,18.1c-0.1,1,0.1,1,0.5,0.1c1.6-4.1,4.2-8,7.5-11.5c5.2-5.3,11.6-8.7,17.9-9.9
			C372.7,153,373.1,152.2,372.5,151.3z"/>
		<path class="st2" d="M394.8,160.4c0.7,0.8,0.9,0.7,0.6-0.3c-1-2.8-2.6-5.3-4.8-7.4c-4.1-4-9.5-5.8-15.2-5.8c-1,0-1.3,0.8-0.7,1.6
			c0.5,0.8,1,1.7,1.5,2.5c0.5,0.9,1.6,1.7,2.6,1.7c5.6,0.3,10.8,2.4,14.8,6.3C394,159.5,394.4,159.9,394.8,160.4z"/>
	</g>
</g>
<g>
	<path class="st15" d="M85,181c0.6,0.3,1,0.5,1.3,0.9c0.3,0.3,0.5,0.8,0.6,1.3c0.1,0.6,0.1,1.3,0,2.1c-0.1,0.8-0.2,1.9-0.5,3.2
		c-0.3,1.4-0.5,2.6-0.7,3.4c-0.2,0.9-0.5,1.5-0.7,2c-0.3,0.5-0.6,0.8-1,0.9c-0.4,0.2-0.9,0.3-1.5,0.3l-32.2,2.4l0,0.1l29.5,12.8
		c0.6,0.2,1,0.5,1.3,0.8c0.3,0.3,0.5,0.7,0.7,1.2c0.1,0.5,0.1,1.2,0,2.1c-0.1,0.9-0.3,2-0.5,3.3c-0.3,1.5-0.5,2.6-0.7,3.5
		c-0.2,0.9-0.5,1.5-0.7,2c-0.3,0.5-0.6,0.8-1,0.9c-0.4,0.2-0.9,0.3-1.5,0.3L32.9,228c-0.9,0.1-1.7,0.1-2.2,0
		c-0.5-0.1-0.9-0.3-1.1-0.6c-0.2-0.4-0.3-0.9-0.2-1.6c0.1-0.7,0.2-1.7,0.4-3c0.2-1.2,0.4-2.1,0.6-2.8c0.2-0.7,0.3-1.2,0.5-1.5
		c0.2-0.3,0.4-0.5,0.7-0.6c0.3-0.1,0.7-0.1,1.2-0.1l38.8-2l0,0l-35.5-15.4c-0.5-0.2-0.8-0.4-1.1-0.6c-0.3-0.2-0.5-0.5-0.6-0.9
		c-0.1-0.4-0.1-1-0.1-1.7c0.1-0.7,0.2-1.6,0.4-2.7c0.2-1.2,0.4-2.2,0.6-2.9c0.2-0.7,0.4-1.2,0.6-1.6c0.2-0.4,0.5-0.6,0.8-0.7
		c0.3-0.1,0.8-0.2,1.3-0.2l38.6-2.7l0-0.1l-35.7-15.1c-0.4-0.1-0.7-0.3-1-0.5c-0.3-0.2-0.4-0.5-0.6-0.8c-0.1-0.4-0.1-0.9-0.1-1.6
		c0.1-0.7,0.2-1.6,0.4-2.8c0.2-1.1,0.4-2,0.5-2.6c0.2-0.6,0.4-1,0.7-1.2c0.3-0.2,0.8-0.3,1.3-0.1c0.5,0.1,1.2,0.4,2.1,0.8L85,181z"
		/>
	<path class="st15" d="M99.3,159.5c0.2,0.1,0.4,0.3,0.5,0.6c0.1,0.2,0.1,0.6,0,1c-0.1,0.4-0.3,0.9-0.5,1.5c-0.3,0.6-0.6,1.3-1.1,2.2
		c-0.5,0.8-0.9,1.5-1.3,2c-0.4,0.5-0.7,0.9-1,1.2c-0.3,0.3-0.6,0.4-0.8,0.5c-0.3,0-0.5,0-0.7-0.1l-40.2-23.6
		c-0.2-0.1-0.4-0.3-0.5-0.6c-0.1-0.2-0.1-0.6,0-1c0.1-0.4,0.3-0.9,0.5-1.5c0.3-0.6,0.6-1.3,1.1-2.1c0.5-0.9,0.9-1.5,1.3-2
		c0.4-0.5,0.7-0.9,1-1.2c0.3-0.3,0.6-0.4,0.8-0.5c0.3,0,0.5,0,0.7,0.1L99.3,159.5z"/>
	<path class="st15" d="M128.9,126.3c0.2,0.2,0.3,0.4,0.4,0.6c0.1,0.2,0,0.5-0.2,0.8c-0.2,0.4-0.5,0.8-1,1.4
		c-0.5,0.6-1.2,1.3-2.1,2.2c-0.8,0.8-1.4,1.3-1.9,1.8c-0.5,0.4-0.9,0.7-1.3,0.9c-0.4,0.2-0.7,0.2-0.9,0.2c-0.3,0-0.5-0.1-0.8-0.3
		l-10.9-4.7c-1.3-0.5-2.4-0.9-3.5-1.2c-1-0.3-2-0.5-2.9-0.5c-0.9,0-1.8,0.1-2.6,0.5c-0.8,0.3-1.6,0.9-2.3,1.7l-2.2,2.2l13.3,13.3
		c0.2,0.2,0.3,0.4,0.3,0.7c0,0.3,0,0.6-0.2,0.9c-0.2,0.4-0.5,0.8-0.9,1.3c-0.4,0.5-0.9,1.1-1.6,1.8c-0.7,0.7-1.3,1.2-1.8,1.6
		c-0.5,0.4-0.9,0.7-1.3,0.9c-0.4,0.2-0.7,0.3-0.9,0.2c-0.3,0-0.5-0.1-0.6-0.3l-31.8-31.7c-0.8-0.8-1.2-1.6-1.1-2.3
		c0.1-0.8,0.4-1.4,1-2l9-9.1c0.9-0.9,1.7-1.7,2.3-2.2c0.6-0.6,1.2-1.1,1.8-1.5c1.6-1.2,3.2-2.1,4.8-2.8c1.6-0.6,3.2-1,4.8-1
		c1.6,0,3.1,0.3,4.6,1c1.5,0.7,2.9,1.7,4.3,3.1c1.2,1.2,2.1,2.4,2.8,3.6c0.7,1.3,1.1,2.6,1.3,3.9c0.2,1.3,0.1,2.7-0.2,4.1
		c-0.3,1.4-0.8,2.8-1.5,4.2c0.8-0.3,1.6-0.5,2.4-0.6c0.8-0.1,1.7-0.1,2.6,0c0.9,0.1,1.9,0.3,2.9,0.6c1,0.3,2.1,0.7,3.3,1.2l9.8,3.9
		c1,0.4,1.6,0.7,2,1C128.5,126,128.8,126.2,128.9,126.3z M96.1,111.8c-1.2-1.1-2.4-1.9-3.7-2.1c-1.3-0.3-2.7,0-4.2,0.9
		c-0.5,0.3-0.9,0.6-1.4,1c-0.5,0.4-1.2,1-2,1.8l-3.2,3.2l9.9,9.9l3.6-3.6c1-1,1.8-2,2.3-3c0.5-1,0.8-2,0.9-2.9
		c0.1-0.9-0.1-1.8-0.5-2.7C97.4,113.4,96.8,112.6,96.1,111.8z"/>
	<path class="st15" d="M141.6,71.1c0.3,0.7,0.6,1.2,0.8,1.7c0.2,0.5,0.3,0.9,0.3,1.3c0,0.3,0,0.6-0.1,0.8c-0.1,0.2-0.3,0.4-0.5,0.5
		l-11,5.6l18,35.6c0.1,0.2,0.1,0.5,0.1,0.7c-0.1,0.3-0.2,0.5-0.5,0.8c-0.3,0.3-0.7,0.6-1.2,1c-0.5,0.4-1.2,0.8-2.1,1.2
		c-0.9,0.4-1.6,0.8-2.2,1c-0.6,0.2-1.1,0.4-1.5,0.4c-0.4,0.1-0.7,0-1-0.1c-0.2-0.1-0.4-0.3-0.5-0.5l-18-35.6l-11,5.6
		c-0.2,0.1-0.5,0.1-0.7,0.1c-0.2-0.1-0.5-0.2-0.7-0.4c-0.3-0.2-0.5-0.6-0.8-1c-0.3-0.4-0.6-1-0.9-1.6c-0.3-0.7-0.6-1.3-0.8-1.8
		c-0.2-0.5-0.3-0.9-0.3-1.3c0-0.3,0-0.6,0.1-0.8c0.1-0.2,0.3-0.4,0.5-0.5l31.1-15.7c0.2-0.1,0.4-0.1,0.7-0.1c0.2,0,0.5,0.2,0.7,0.4
		c0.3,0.2,0.5,0.6,0.8,1C140.9,69.9,141.3,70.4,141.6,71.1z"/>
	<path class="st15" d="M201.6,87.7c0.4,3,0.2,5.8-0.4,8.2c-0.6,2.5-1.7,4.6-3.2,6.5c-1.5,1.9-3.5,3.4-5.9,4.5
		c-2.4,1.2-5.3,1.9-8.6,2.3c-3.1,0.4-5.9,0.3-8.4-0.2c-2.5-0.5-4.8-1.4-6.6-2.8c-1.9-1.4-3.4-3.2-4.6-5.4c-1.2-2.2-2-4.9-2.3-8
		l-3.6-29.8c0-0.3,0-0.5,0.1-0.7c0.1-0.2,0.4-0.4,0.8-0.6c0.4-0.2,0.9-0.3,1.5-0.5c0.6-0.2,1.4-0.3,2.4-0.4c1-0.1,1.8-0.2,2.4-0.2
		c0.6,0,1.2,0,1.6,0.1c0.4,0.1,0.7,0.2,0.9,0.4c0.2,0.2,0.3,0.4,0.3,0.7l3.5,29c0.2,1.9,0.7,3.6,1.3,5c0.7,1.4,1.5,2.5,2.5,3.3
		c1,0.8,2.2,1.4,3.5,1.7c1.3,0.3,2.7,0.4,4.3,0.2c1.6-0.2,2.9-0.6,4.1-1.2c1.2-0.6,2.1-1.5,2.9-2.5c0.7-1,1.3-2.2,1.6-3.7
		c0.3-1.4,0.4-3,0.1-4.7l-3.6-29.5c0-0.3,0-0.5,0.1-0.7c0.1-0.2,0.4-0.4,0.7-0.6c0.4-0.2,0.9-0.3,1.5-0.5c0.6-0.2,1.4-0.3,2.4-0.4
		c1-0.1,1.8-0.2,2.4-0.2c0.6,0,1.1,0,1.5,0.1c0.4,0.1,0.7,0.2,0.9,0.4c0.2,0.2,0.3,0.4,0.3,0.7L201.6,87.7z"/>
	<path class="st15" d="M245.9,115c-0.1,0.3-0.2,0.5-0.3,0.6c-0.1,0.2-0.4,0.3-0.8,0.3c-0.4,0-1,0-1.7-0.2c-0.7-0.1-1.7-0.4-2.9-0.7
		c-1-0.3-1.9-0.5-2.5-0.7c-0.6-0.2-1.1-0.4-1.4-0.7c-0.3-0.2-0.5-0.5-0.6-0.7c-0.1-0.2-0.2-0.5-0.2-0.9l-1.5-11.8
		c-0.2-1.3-0.4-2.5-0.7-3.6c-0.3-1.1-0.6-2-1-2.8c-0.4-0.8-1-1.4-1.7-2c-0.7-0.5-1.6-0.9-2.6-1.2l-3-0.8l-4.7,18.2
		c-0.1,0.2-0.2,0.4-0.4,0.6c-0.2,0.2-0.5,0.2-0.9,0.3c-0.4,0-0.9,0-1.6-0.1c-0.6-0.1-1.4-0.3-2.4-0.5c-0.9-0.2-1.7-0.5-2.3-0.7
		c-0.6-0.2-1.1-0.5-1.4-0.7c-0.3-0.2-0.6-0.4-0.7-0.7c-0.1-0.2-0.1-0.5,0-0.7l11.2-43.5c0.3-1.1,0.8-1.8,1.4-2.1
		c0.7-0.3,1.4-0.4,2.2-0.2l12.4,3.2c1.3,0.3,2.3,0.6,3.1,0.9c0.8,0.3,1.5,0.5,2.2,0.8c1.9,0.8,3.5,1.7,4.8,2.7
		c1.4,1.1,2.4,2.3,3.2,3.6c0.8,1.4,1.3,2.8,1.5,4.4c0.2,1.6,0,3.4-0.5,5.3c-0.4,1.6-1,3-1.7,4.2c-0.7,1.2-1.7,2.2-2.7,3.1
		c-1.1,0.8-2.3,1.5-3.6,1.9c-1.4,0.5-2.8,0.7-4.4,0.8c0.6,0.5,1.2,1.1,1.7,1.8c0.5,0.7,0.9,1.4,1.3,2.3c0.4,0.8,0.7,1.8,1,2.8
		c0.3,1,0.5,2.2,0.7,3.4l1.6,10.5c0.1,1,0.2,1.8,0.2,2.2C246,114.4,245.9,114.8,245.9,115z M241.7,79.3c0.4-1.6,0.4-3,0-4.3
		c-0.4-1.3-1.4-2.3-2.9-3.2c-0.5-0.3-1-0.5-1.6-0.7c-0.6-0.2-1.5-0.5-2.6-0.8l-4.4-1.1l-3.5,13.6l5,1.3c1.4,0.4,2.6,0.5,3.8,0.4
		c1.1-0.1,2.1-0.3,3-0.7c0.8-0.4,1.5-1,2.1-1.8C241,81.2,241.5,80.3,241.7,79.3z"/>
</g>
<g>
	<path class="st16" d="M224.9,369.6c0.1,0.5,0.1,1,0.1,1.5c0,0.5-0.2,0.9-0.3,1.3c-0.2,0.4-0.4,0.8-0.7,1.1c-0.3,0.3-0.6,0.6-1,0.9
		c-0.4,0.3-0.8,0.5-1.3,0.7c-0.5,0.2-1,0.3-1.6,0.5l-4.3,0.8c-0.2,0-0.4,0-0.6-0.1c-0.2-0.1-0.3-0.3-0.4-0.6l-2.9-14.5
		c-0.1-0.3,0-0.6,0.1-0.7c0.1-0.2,0.3-0.3,0.5-0.3l3.7-0.7c1-0.2,1.8-0.3,2.4-0.2c0.7,0.1,1.2,0.2,1.7,0.5c0.5,0.3,0.9,0.6,1.2,1.1
		c0.3,0.5,0.5,1,0.7,1.7c0.1,0.4,0.1,0.8,0.1,1.1c0,0.4-0.1,0.7-0.2,1.1c-0.1,0.3-0.3,0.6-0.5,0.9c-0.2,0.3-0.5,0.5-0.8,0.8
		c0.5,0,0.9,0.1,1.3,0.2c0.4,0.1,0.8,0.4,1.2,0.6c0.4,0.3,0.7,0.6,0.9,1.1C224.7,368.5,224.8,369,224.9,369.6z M220.2,362.9
		c-0.1-0.4-0.2-0.7-0.4-1c-0.2-0.3-0.4-0.5-0.7-0.7c-0.3-0.2-0.6-0.3-1-0.3c-0.4,0-0.9,0-1.5,0.1l-2.2,0.4l1,5.3l2.5-0.5
		c0.6-0.1,1-0.3,1.3-0.5c0.3-0.2,0.6-0.5,0.7-0.8c0.2-0.3,0.3-0.6,0.3-1C220.3,363.6,220.3,363.3,220.2,362.9z M222.7,370.1
		c-0.1-0.5-0.3-0.9-0.5-1.2c-0.2-0.3-0.5-0.6-0.9-0.8c-0.3-0.2-0.8-0.3-1.2-0.3c-0.5,0-1.1,0-1.7,0.1l-2.6,0.5l1.1,5.7l3.1-0.6
		c0.5-0.1,0.9-0.2,1.3-0.4c0.3-0.2,0.6-0.4,0.9-0.7c0.2-0.3,0.4-0.6,0.5-1C222.8,371,222.8,370.6,222.7,370.1z"/>
	<path class="st16" d="M232.4,372.1c0,0.1,0,0.1,0,0.2c0,0.1-0.1,0.1-0.1,0.2c-0.1,0.1-0.2,0.1-0.3,0.2c-0.1,0.1-0.3,0.1-0.5,0.2
		c-0.2,0.1-0.4,0.1-0.5,0.1c-0.1,0-0.3,0-0.4,0c-0.1,0-0.2,0-0.2-0.1c0,0-0.1-0.1-0.1-0.2l-4.2-15.4c0-0.1,0-0.1,0-0.2
		c0-0.1,0.1-0.1,0.2-0.2c0.1-0.1,0.2-0.1,0.3-0.2c0.1-0.1,0.3-0.1,0.5-0.2c0.2-0.1,0.4-0.1,0.5-0.1c0.1,0,0.3,0,0.3,0
		c0.1,0,0.2,0,0.2,0.1c0,0,0.1,0.1,0.1,0.2L232.4,372.1z"/>
	<path class="st16" d="M247.5,360.9c0.3,0.9,0.5,1.8,0.5,2.7c0,0.8-0.2,1.6-0.5,2.3c-0.3,0.7-0.8,1.3-1.5,1.9
		c-0.6,0.5-1.4,1-2.4,1.3c-0.9,0.3-1.7,0.5-2.5,0.5c-0.8,0-1.5-0.1-2.2-0.4c-0.7-0.3-1.3-0.8-1.8-1.4c-0.5-0.6-1-1.4-1.3-2.4
		l-3.5-9.7c0-0.1,0-0.1,0-0.2c0-0.1,0.1-0.1,0.1-0.2c0.1-0.1,0.2-0.1,0.3-0.2c0.1-0.1,0.3-0.1,0.5-0.2c0.2-0.1,0.4-0.1,0.5-0.1
		c0.1,0,0.3,0,0.3,0c0.1,0,0.2,0,0.2,0.1c0,0,0.1,0.1,0.1,0.2l3.4,9.4c0.3,0.7,0.6,1.3,1,1.8c0.4,0.5,0.8,0.8,1.3,1.1
		c0.5,0.2,1,0.4,1.5,0.4c0.5,0,1.1-0.1,1.7-0.3c0.6-0.2,1.1-0.5,1.5-0.8c0.4-0.3,0.7-0.8,0.9-1.2c0.2-0.5,0.3-1,0.3-1.6
		c0-0.6-0.2-1.2-0.4-1.9l-3.5-9.5c0-0.1,0-0.1,0-0.2c0-0.1,0.1-0.1,0.1-0.2c0.1-0.1,0.2-0.1,0.3-0.2c0.1-0.1,0.3-0.1,0.5-0.2
		c0.2-0.1,0.4-0.1,0.5-0.1c0.1,0,0.3,0,0.3,0c0.1,0,0.2,0,0.2,0.1c0.1,0,0.1,0.1,0.1,0.1L247.5,360.9z"/>
	<path class="st16" d="M264.7,359.2c0,0.1,0,0.1,0,0.2c0,0.1,0,0.1-0.1,0.2c-0.1,0.1-0.2,0.1-0.3,0.2c-0.1,0.1-0.3,0.2-0.5,0.3
		c-0.2,0.1-0.4,0.2-0.5,0.2c-0.1,0-0.2,0.1-0.3,0.1c-0.1,0-0.2,0-0.3-0.1c-0.1,0-0.1-0.1-0.2-0.2l-3.1-2.9c-0.4-0.3-0.7-0.6-1-0.9
		c-0.3-0.3-0.7-0.4-1-0.6c-0.4-0.1-0.7-0.2-1.1-0.2c-0.4,0-0.8,0.1-1.3,0.4l-1.3,0.6l3.1,6.4c0,0.1,0,0.1,0,0.2c0,0.1,0,0.1-0.1,0.2
		c-0.1,0.1-0.2,0.1-0.3,0.2c-0.1,0.1-0.3,0.2-0.5,0.3c-0.2,0.1-0.4,0.2-0.5,0.2c-0.1,0-0.3,0.1-0.3,0.1c-0.1,0-0.2,0-0.2,0
		c-0.1,0-0.1-0.1-0.1-0.1l-6.7-13.8c-0.1-0.3-0.2-0.5-0.1-0.7c0.1-0.2,0.2-0.3,0.4-0.4l3.2-1.5c0.4-0.2,0.7-0.3,1-0.4
		c0.3-0.1,0.5-0.2,0.7-0.3c0.6-0.2,1.2-0.3,1.8-0.3c0.5,0,1.1,0.1,1.5,0.3c0.5,0.2,0.9,0.5,1.2,0.8c0.4,0.4,0.7,0.8,0.9,1.3
		c0.2,0.5,0.4,1,0.5,1.4c0.1,0.5,0,0.9-0.1,1.3c-0.1,0.4-0.3,0.8-0.5,1.2s-0.6,0.8-0.9,1.1c0.3,0,0.6,0,0.9,0.1
		c0.3,0.1,0.6,0.2,0.8,0.3c0.3,0.1,0.6,0.3,0.9,0.6c0.3,0.2,0.6,0.5,1,0.8l2.9,2.6c0.2,0.2,0.4,0.4,0.5,0.5
		C264.6,359.1,264.6,359.2,264.7,359.2z M256.6,350.2c-0.3-0.6-0.7-1-1.1-1.3c-0.5-0.3-1-0.4-1.7-0.2c-0.2,0-0.5,0.1-0.7,0.2
		c-0.3,0.1-0.6,0.2-1,0.4l-1.7,0.8l2.4,5l1.9-0.9c0.5-0.3,0.9-0.5,1.3-0.8c0.3-0.3,0.6-0.6,0.7-1c0.1-0.3,0.2-0.7,0.2-1.1
		C256.9,350.9,256.8,350.5,256.6,350.2z"/>
	<path class="st16" d="M275.9,342.9c0.7,1.1,1.2,2.3,1.5,3.3c0.3,1.1,0.4,2.1,0.2,3.1c-0.1,1-0.5,1.9-1.1,2.7
		c-0.6,0.8-1.4,1.6-2.5,2.3c-1.1,0.7-2.1,1.1-3.1,1.2c-1,0.2-1.9,0.1-2.8-0.2c-0.9-0.3-1.7-0.8-2.5-1.5c-0.8-0.7-1.6-1.7-2.3-2.9
		c-0.7-1.1-1.2-2.2-1.5-3.3c-0.3-1.1-0.4-2.1-0.2-3.1c0.1-1,0.5-1.9,1.1-2.7c0.6-0.8,1.4-1.6,2.5-2.3c1-0.6,2-1,3-1.2
		c1-0.2,1.9-0.1,2.8,0.2c0.9,0.3,1.7,0.8,2.5,1.5C274.5,340.8,275.2,341.8,275.9,342.9z M274,344.3c-0.5-0.8-1-1.5-1.6-2.1
		c-0.6-0.6-1.2-1-1.8-1.3c-0.6-0.3-1.3-0.4-2.1-0.4c-0.7,0.1-1.5,0.3-2.3,0.8c-0.8,0.5-1.4,1.1-1.8,1.7c-0.4,0.6-0.6,1.3-0.6,2.1
		c0,0.7,0.1,1.5,0.4,2.2c0.3,0.8,0.6,1.5,1.1,2.3c0.5,0.8,1.1,1.5,1.6,2.2c0.6,0.6,1.2,1.1,1.8,1.4c0.6,0.3,1.3,0.4,2,0.4
		c0.7-0.1,1.5-0.3,2.3-0.9c0.8-0.5,1.4-1.1,1.8-1.7c0.4-0.7,0.6-1.3,0.6-2.1c0-0.7-0.1-1.5-0.4-2.3C274.9,345.8,274.5,345,274,344.3
		z"/>
	<path class="st16" d="M290.1,327.4c0.5,0.6,0.9,1.3,1.1,2c0.2,0.7,0.3,1.4,0.2,2.1c-0.1,0.7-0.3,1.4-0.7,2c-0.4,0.7-1,1.3-1.8,2
		l-1.4,1.2l3.9,4.6c0,0.1,0.1,0.1,0.1,0.2c0,0.1,0,0.1-0.1,0.2c0,0.1-0.1,0.2-0.2,0.3c-0.1,0.1-0.2,0.2-0.4,0.4
		c-0.2,0.1-0.3,0.2-0.4,0.3c-0.1,0.1-0.2,0.1-0.3,0.2c-0.1,0-0.2,0-0.2,0c-0.1,0-0.1-0.1-0.2-0.1l-9.9-11.7
		c-0.2-0.3-0.3-0.5-0.3-0.7c0-0.2,0.2-0.4,0.3-0.6l2.7-2.3c0.3-0.2,0.5-0.4,0.8-0.6c0.3-0.2,0.6-0.4,1-0.6c0.4-0.2,0.9-0.4,1.4-0.5
		c0.5-0.1,1-0.1,1.5,0c0.5,0.1,1,0.3,1.5,0.6C289.3,326.5,289.7,326.9,290.1,327.4z M288.5,329c-0.4-0.5-0.9-0.9-1.4-1
		c-0.5-0.2-0.9-0.2-1.4-0.2c-0.4,0.1-0.8,0.2-1.2,0.4c-0.3,0.2-0.7,0.4-0.9,0.7l-1.6,1.3l4.3,5.1l1.5-1.3c0.5-0.4,0.9-0.9,1.1-1.3
		c0.2-0.4,0.4-0.8,0.4-1.3c0-0.4,0-0.8-0.2-1.3C289,329.8,288.8,329.4,288.5,329z"/>
	<path class="st16" d="M304.7,317.2c1,0.9,1.7,1.9,2.3,2.9c0.6,1,0.9,2,1,2.9c0.1,1,0,2-0.4,2.9s-1,1.9-1.9,2.8
		c-0.9,0.9-1.7,1.6-2.6,2c-0.9,0.4-1.8,0.6-2.7,0.5c-0.9-0.1-1.9-0.3-2.8-0.9c-1-0.5-1.9-1.2-2.9-2.2c-0.9-0.9-1.7-1.8-2.3-2.8
		c-0.6-1-0.9-1.9-1-2.9c-0.1-1,0-1.9,0.4-2.9c0.4-1,1-1.9,1.9-2.8c0.8-0.9,1.7-1.5,2.6-1.9c0.9-0.4,1.8-0.6,2.7-0.5
		c0.9,0.1,1.9,0.3,2.8,0.8C302.7,315.5,303.7,316.2,304.7,317.2z M303.2,319c-0.7-0.7-1.4-1.2-2.1-1.6c-0.7-0.4-1.4-0.7-2.1-0.9
		c-0.7-0.1-1.4-0.1-2.1,0.2c-0.7,0.2-1.4,0.7-2,1.4c-0.7,0.7-1.1,1.4-1.3,2.1c-0.2,0.7-0.2,1.4-0.1,2.1c0.2,0.7,0.5,1.4,0.9,2.1
		c0.5,0.7,1,1.3,1.6,1.9c0.7,0.7,1.4,1.2,2.1,1.7c0.7,0.4,1.4,0.7,2.1,0.9c0.7,0.1,1.4,0.1,2.1-0.2c0.7-0.2,1.4-0.7,2-1.4
		c0.7-0.7,1.1-1.4,1.3-2.1c0.2-0.7,0.2-1.4,0-2.2c-0.2-0.7-0.5-1.4-0.9-2.1C304.4,320.2,303.8,319.6,303.2,319z"/>
	<path class="st16" d="M314.9,303.9c1.1,0.9,2,1.8,2.7,2.7c0.6,0.9,1,1.9,1.2,2.9c0.1,1,0,2-0.3,3c-0.3,1-0.9,2.1-1.8,3.2l-2.1,2.8
		c-0.1,0.2-0.3,0.3-0.5,0.3c-0.2,0.1-0.5,0-0.7-0.2l-11.8-9c-0.3-0.2-0.4-0.4-0.4-0.6c0-0.2,0.1-0.4,0.2-0.6l2.3-3
		c0.9-1.1,1.8-2,2.7-2.6c0.9-0.6,1.8-0.9,2.8-1c1-0.1,1.9,0,2.9,0.3C312.9,302.6,313.9,303.2,314.9,303.9z M313.5,305.8
		c-0.7-0.5-1.4-1-2.2-1.3c-0.8-0.3-1.5-0.4-2.2-0.4c-0.7,0-1.5,0.2-2.1,0.6c-0.7,0.4-1.4,1-2.1,2l-1.4,1.8l10.3,7.8l1.4-1.8
		c0.6-0.8,1.1-1.6,1.3-2.4c0.2-0.7,0.3-1.5,0.1-2.2c-0.1-0.7-0.5-1.4-1-2.1C315.1,307.2,314.4,306.5,313.5,305.8z"/>
	<path class="st16" d="M329.8,295.5c0.1,0,0.1,0.1,0.1,0.1c0,0,0,0.1,0,0.2c0,0.1-0.1,0.2-0.1,0.3c-0.1,0.1-0.2,0.3-0.3,0.5
		c-0.1,0.2-0.2,0.3-0.3,0.5c-0.1,0.1-0.2,0.2-0.2,0.2c-0.1,0.1-0.2,0.1-0.2,0.1c-0.1,0-0.2,0-0.3,0l-4.1-0.7
		c-0.5-0.1-0.9-0.1-1.3-0.2c-0.4,0-0.8,0-1.2,0.1c-0.4,0.1-0.7,0.2-1,0.5c-0.3,0.2-0.6,0.6-0.9,1l-0.8,1.3l6,3.7
		c0.1,0,0.1,0.1,0.1,0.1c0,0.1,0,0.1,0,0.2c0,0.1-0.1,0.2-0.1,0.3c-0.1,0.1-0.1,0.3-0.3,0.5c-0.1,0.2-0.2,0.3-0.3,0.4
		c-0.1,0.1-0.2,0.2-0.2,0.3c-0.1,0.1-0.1,0.1-0.2,0.1c-0.1,0-0.1,0-0.2-0.1l-13.1-8c-0.3-0.2-0.4-0.4-0.5-0.6c0-0.2,0-0.4,0.1-0.6
		l1.8-3c0.2-0.4,0.4-0.6,0.6-0.9c0.2-0.2,0.3-0.4,0.5-0.6c0.4-0.5,0.9-0.9,1.3-1.2c0.5-0.3,0.9-0.5,1.4-0.6c0.5-0.1,1-0.1,1.5,0
		c0.5,0.1,1,0.3,1.5,0.6c0.5,0.3,0.9,0.6,1.2,1c0.3,0.4,0.5,0.7,0.7,1.2c0.1,0.4,0.2,0.9,0.2,1.3c0,0.5,0,1-0.2,1.5
		c0.2-0.2,0.5-0.3,0.8-0.4c0.3-0.1,0.6-0.2,0.9-0.2c0.3,0,0.7,0,1,0c0.4,0,0.8,0.1,1.2,0.1l3.9,0.6c0.3,0.1,0.6,0.1,0.7,0.1
		C329.6,295.4,329.7,295.4,329.8,295.5z M318.1,292.2c-0.6-0.3-1.1-0.5-1.6-0.5c-0.5,0-1.1,0.3-1.6,0.7c-0.2,0.2-0.3,0.3-0.5,0.6
		c-0.2,0.2-0.4,0.5-0.6,0.9l-1,1.6l4.8,2.9l1.1-1.8c0.3-0.5,0.5-1,0.6-1.4c0.1-0.4,0.1-0.8,0-1.2c-0.1-0.4-0.2-0.7-0.4-1
		C318.7,292.7,318.4,292.4,318.1,292.2z"/>
	<path class="st16" d="M316.3,275.7c-0.1-0.1-0.1-0.3-0.1-0.4c0-0.1,0-0.2,0-0.3c0-0.1,0.1-0.2,0.1-0.4c0.1-0.1,0.1-0.3,0.2-0.5
		c0.1-0.2,0.2-0.4,0.3-0.5c0.1-0.1,0.2-0.2,0.3-0.2c0.1,0,0.1,0,0.2,0c0.1,0.1,0.1,0.1,0.2,0.2l1.2,3.8c0,0.1,0.1,0.2,0.1,0.3
		c0,0.1,0,0.2,0,0.3c0,0.1,0,0.2-0.1,0.3c0,0.1-0.1,0.3-0.2,0.4c-0.1,0.2-0.2,0.3-0.2,0.4s-0.1,0.1-0.2,0.2c-0.1,0-0.1,0-0.2,0
		c-0.1,0-0.1-0.1-0.2-0.2L316.3,275.7z M330.4,275.6c1.2,0.6,2.2,1.2,3.1,2c0.8,0.7,1.5,1.6,1.9,2.5c0.4,0.9,0.6,1.9,0.6,2.9
		c0,1-0.3,2.1-0.9,3.3c-0.5,1.1-1.2,2-1.9,2.7c-0.7,0.7-1.5,1.1-2.4,1.3c-0.9,0.2-1.9,0.3-3,0.1c-1.1-0.2-2.2-0.6-3.5-1.2
		c-1.2-0.6-2.2-1.2-3-2c-0.8-0.7-1.4-1.6-1.9-2.5c-0.4-0.9-0.6-1.9-0.5-2.9c0-1,0.3-2.1,0.9-3.3c0.5-1.1,1.2-2,1.9-2.7
		c0.7-0.7,1.5-1.1,2.4-1.4c0.9-0.2,1.9-0.3,2.9-0.1C328,274.7,329.2,275.1,330.4,275.6z M329.5,277.8c-0.9-0.4-1.7-0.7-2.5-0.9
		c-0.8-0.2-1.6-0.2-2.3-0.2c-0.7,0.1-1.3,0.4-1.9,0.8c-0.6,0.4-1.1,1.1-1.5,2c-0.4,0.9-0.6,1.7-0.5,2.4c0,0.7,0.3,1.4,0.6,2
		c0.4,0.6,0.9,1.2,1.5,1.7c0.6,0.5,1.4,0.9,2.2,1.3c0.9,0.4,1.7,0.7,2.5,0.9c0.8,0.2,1.6,0.3,2.3,0.2c0.7-0.1,1.3-0.4,1.9-0.8
		c0.6-0.4,1.1-1.1,1.5-2c0.4-0.9,0.6-1.7,0.6-2.4c0-0.8-0.3-1.4-0.6-2.1c-0.4-0.6-0.9-1.2-1.6-1.7
		C331.1,278.6,330.3,278.2,329.5,277.8z"/>
	<path class="st16" d="M322.9,263.6c0.5,0.2,0.7,0.4,0.8,0.6c0.1,0.2,0.1,0.6-0.1,1c-0.2,0.4-0.4,0.7-0.6,0.8
		c-0.2,0.1-0.6,0.1-1-0.1c-0.4-0.2-0.7-0.4-0.8-0.6c-0.1-0.2-0.1-0.6,0.1-1c0.2-0.5,0.4-0.7,0.6-0.8
		C322.2,263.4,322.5,263.4,322.9,263.6z M342,265.9c0.2,0.1,0.3,0.1,0.4,0.2c0.1,0.1,0.2,0.1,0.2,0.2c0.1,0.1,0.1,0.1,0.1,0.2
		c0,0.1,0,0.1,0,0.2l-3.3,9.2c-0.1,0.2-0.2,0.4-0.4,0.4c-0.2,0.1-0.4,0.1-0.7,0l-0.4-0.2c-0.1,0-0.2-0.1-0.3-0.1
		c-0.1,0-0.2-0.1-0.3-0.2c-0.1-0.1-0.2-0.2-0.3-0.3c-0.1-0.1-0.2-0.3-0.3-0.4l-8.7-11.3l-2.6,7.1c0,0.1-0.1,0.1-0.1,0.2
		c-0.1,0-0.1,0.1-0.2,0.1c-0.1,0-0.2,0-0.3,0c-0.1,0-0.2-0.1-0.4-0.1c-0.2-0.1-0.3-0.1-0.4-0.2c-0.1-0.1-0.2-0.1-0.2-0.2
		c-0.1-0.1-0.1-0.1-0.1-0.2c0-0.1,0-0.1,0-0.2l3.1-8.7c0.1-0.2,0.2-0.4,0.4-0.4c0.2-0.1,0.4-0.1,0.6,0l0.5,0.2
		c0.1,0,0.2,0.1,0.3,0.1c0.1,0.1,0.2,0.1,0.3,0.2c0.1,0.1,0.2,0.2,0.3,0.3c0.1,0.1,0.2,0.3,0.3,0.4l8.6,11.2l2.8-7.6
		c0-0.1,0.2-0.2,0.3-0.2C341.4,265.7,341.7,265.8,342,265.9z"/>
	<path class="st16" d="M339.1,255.7l5.9,1.6c0.1,0,0.1,0,0.2,0.1c0,0,0.1,0.1,0.1,0.2c0,0.1,0,0.2,0,0.4c0,0.1-0.1,0.3-0.1,0.5
		c-0.1,0.2-0.1,0.4-0.2,0.5c-0.1,0.1-0.1,0.2-0.2,0.3c-0.1,0.1-0.1,0.1-0.2,0.1c-0.1,0-0.1,0-0.2,0l-5.9-1.6l-10.3,2.1
		c-0.2,0-0.4,0.1-0.5,0c-0.1,0-0.2-0.1-0.2-0.1c0-0.1,0-0.2,0-0.4c0-0.2,0.1-0.4,0.1-0.7c0.1-0.2,0.1-0.4,0.2-0.6
		c0.1-0.2,0.1-0.3,0.2-0.3c0.1-0.1,0.1-0.1,0.2-0.2c0.1,0,0.1-0.1,0.2-0.1l5.2-1c0.5-0.1,1-0.2,1.5-0.2c0.5-0.1,1.1-0.2,1.6-0.2l0,0
		c-0.4-0.3-0.8-0.6-1.3-1c-0.4-0.3-0.8-0.7-1.2-1l-4-3.5c-0.1,0-0.1-0.1-0.2-0.2c0-0.1-0.1-0.1-0.1-0.2c0-0.1,0-0.2,0-0.3
		c0-0.1,0.1-0.3,0.1-0.5c0.1-0.3,0.2-0.5,0.2-0.7c0.1-0.2,0.1-0.3,0.2-0.3c0.1,0,0.2-0.1,0.3,0c0.1,0,0.2,0.1,0.4,0.3L339.1,255.7z"
		/>
</g>
<g>
	<path class="st17" d="M132.7,192.3c0,0-7.4,5-10.3,11.1c-2.8,6.1-4.3,7.9-4.3,7.9s9.1-5.4,17.5-5.4c8.5,0,44.4,0.9,53.9,1.8
		c9.5,0.9,13.7-1,18.4,3.1c4.6,4.1,10,10.7,11.7,18.5c1.7,7.8,2,24.4,1.3,27.4c-0.7,3-0.9,6.2-0.9,6.2s25,14.1,25.4,16.6
		c0.4,2.5,4,2.2,4,2.2l10.6-7.5l37.2-27.1c0,0,3.2-12.1,6.7-15.7c3.5-3.6,5.8-13.6,3-24.9c-2.8-11.4-9.5-14-11.2-21.2
		c-1.7-7.2-5.4-22.5-9.2-27.6c-3.8-5.2-5.9-6.6-21.3-8.4c-15.4-1.8-58.8-6.7-60.2-6c-1.4,0.7-34.5,23.7-41.6,27.7
		C156.2,174.7,132.7,192.3,132.7,192.3L132.7,192.3z"/>
	<path class="st18" d="M121,209.9c0,0,1.1-8.4,16.3-8c15.3,0.4,50-0.1,59.7,0.8c9.8,0.9,13.9-0.5,17.5,3.3c3.6,3.8,5.1,5.8,5,7.1
		c-0.1,1.4-1.4-3.9,2.7-7.7c4.1-3.8,12.8-7.6,29.9-19.9c17.2-12.3,22.2-18.8,24.8-20.8c2.6-2,8.1-2.2,11.5,3.2
		c2.9,4.6,10.9,29.9,7.7,33.2c-2.9,3.1-3.6,4.7-9.4,9.8c-5.8,5.1-11,9.7-14.4,12.5c-3.5,2.8-35.5,25.9-38.6,27.3
		c-3.1,1.4-3.7-1.9-4.8,2.2c-1.1,4-1.7,9.2-1.7,9.2s-5,1.9-6-0.1c-1-2,2-23.1-0.8-29.8c-2.8-6.7-5.3-20-17.4-23.2
		c-12.1-3.2-65.5-4.2-71.3-2.9C126.1,207.2,118.7,211.9,121,209.9L121,209.9z"/>
	<path class="st19" d="M91.4,312.1c0,0,5,22.6,20.5,23.3c15.5,0.7,20.6-12.1,20.6-12.1L106,309.8L91.4,312.1L91.4,312.1z"/>
	<path class="st20" d="M104.5,255.2l11.4-38c0,0,2.5-10.7,16.4-11.2c13.9-0.6,58.5,0.7,63.7,1.7c5.2,1,16.7,1.2,21.1,14
		c4.4,12.7,5.2,15.1,4.3,26.4c-0.9,11.3-1.9,12.9-1.9,12.9s-5.9,1.4-7,2.3c-1.1,0.8-1.6-0.1-1.6-0.1s-8.7-4.2-19.9-2
		c-11.1,2.2-16.5,1.3-16.5,1.3l-58-5.7L104.5,255.2L104.5,255.2z"/>
	<path d="M199.7,234c-7.4-6.1-16-2-17.9-0.1c0,0-7.6,5.4-5.7,16c1.9,10.6,14.8,15.1,22.5,8.9C206.4,252.5,207.2,240.1,199.7,234
		L199.7,234z"/>
	<path class="st2" d="M192.5,259.7c-7.1,1.9-16.1-3-14.8-13.1c1.3-10.1,6-12,6-12s4.3-2.4,9.6-1.4c5.3,1,9.6,4.6,9.9,11
		C203.5,250.5,199.6,257.8,192.5,259.7L192.5,259.7z"/>
	<path class="st21" d="M202.8,244.5c-1.8,12.3-19.1,13.8-19.1,13.8s7,4.2,13.5-0.5C203.8,253.2,202.8,244.5,202.8,244.5L202.8,244.5
		z"/>
	<path d="M193.1,238.9c-4.4-0.3-8.2,3.7-8.5,8.9c-0.3,5.2,3,9.7,7.3,10c4.4,0.3,8.2-3.7,8.5-8.9
		C200.8,243.6,197.5,239.2,193.1,238.9L193.1,238.9z"/>
	<path class="st2" d="M186.5,245.8c0.4-1.4,1.6-2.3,2.9-2c1.2,0.3,1.9,1.7,1.6,3.1c-0.4,1.4-1.6,2.3-2.9,2
		C186.9,248.6,186.2,247.2,186.5,245.8L186.5,245.8z"/>
	<path d="M134.2,254.2c11.5-3.6,10.9-18.8,8.1-23.6c-2.8-4.8-9.5-7.1-16.4-3.2c0,0-6.2,1.8-8.9,11.6
		C114.2,248.7,122.6,257.7,134.2,254.2L134.2,254.2z"/>
	<path class="st2" d="M123.6,230c12.4-7.7,18.7,0.4,19.1,6.7c0.4,6.3-3.5,14.5-8.5,16.5c-5,2-16.6-0.4-16.6-9.2
		C117.6,235.3,123.6,230,123.6,230L123.6,230z"/>
	<path class="st21" d="M122.6,251.5c0,0,5.7,3.6,12,1.3c6.3-2.4,6.5-9.4,6.5-9.4S134,254.6,122.6,251.5L122.6,251.5z"/>
	<path d="M132.2,251.7c4.1,0.3,7.6-3.6,7.9-8.6c0.3-5-2.7-9.3-6.8-9.6c-4.1-0.3-7.6,3.6-8,8.6C125.1,247.2,128.2,251.5,132.2,251.7
		L132.2,251.7z"/>
	<path class="st2" d="M133,240.8c-0.3,1.4-1.4,2.3-2.4,2.1c-1-0.2-1.6-1.5-1.3-2.9c0.3-1.4,1.4-2.3,2.4-2.1
		C132.7,238.1,133.3,239.4,133,240.8L133,240.8z"/>
	<path class="st17" d="M127.2,255.4c0,0-19-2.9-25.7,0.4c-6.8,3.4-13,11.2-12.2,26.8c0.7,15.6,6.8,21,12.8,28.6
		c6.1,7.6,14.8,10.3,18.8,10.8c4,0.5,37.2,2.7,47.2,3c10,0.3,12.2,0.3,16.6-3.1c4.4-3.3,24.1-31.8,24.1-31.8l6.3-22.7
		c0,0-4.5-8-10.8-9.1c-6.3-1.1-27.8,3.4-27.8,3.4s-4.2-9.7-11-13.6c-6.8-3.9-23.6-5.5-31.6,2.7c-7.9,8.1-3.8,5.5-3.8,5.5
		L127.2,255.4L127.2,255.4z"/>
	<path class="st22" d="M152.8,245.6c12.9,0.8,22.9,9.2,22.3,18.7c-0.6,9.5-11.6,16.5-24.5,15.7c-12.9-0.8-22.9-9.2-22.3-18.7
		C128.9,251.9,139.9,244.8,152.8,245.6L152.8,245.6z"/>
	<path class="st23" d="M88.6,272c0,0-6,1.2-6.7,13.3c-0.8,12,3.1,22.7,6.9,25.9c3.8,3.2,15.3,1.3,15.3,1.3l-4.1-3.8
		c0,0-12.2-18.7-11.6-28.1C88.9,271.2,88.6,272,88.6,272L88.6,272z"/>
	<path class="st24" d="M188.7,151.9l-54.5,37.2c0,0-13,8.9-19.4,29.4c-6.3,20.5-10.4,36-10.4,36s14.3-50.6,28.4-61.1
		c14.1-10.5,55.9-38.8,55.9-38.8L188.7,151.9L188.7,151.9z"/>
	<path class="st24" d="M88.3,271.4c0,0-6.8,2-7,13.8c-0.2,11.8,1.4,20.7,5.4,24.8c4,4,5.2,2.5,11.3,3.4c6.1,0.9,5.9-0.4,5.9-0.4
		s-12.3-0.8-15.1-2.6c-2.8-1.8-8-13.1-6.6-23.2C83.7,277,83.1,277.8,88.3,271.4L88.3,271.4z"/>
	<path class="st19" d="M137,274.2c0,0-8.5-1.6-7-12.8c1.5-11.2,8-15.9,23.5-14.9c15.5,1,16.2,6.7,19.9,11.7
		c3.7,5.1-0.5,15.8-5.3,15.8c-4.8,0-6.1-1.7-7.5-0.7c-1.4,1-0.5,2.9,3.8,3.2c4.3,0.3,14.6-5.5,10.6-18.4
		c-4-12.9-22.1-14.6-29.2-13.1c-7.1,1.4-17.2,4.5-17.6,15.5c-0.4,11,2.1,13,5,14.5C136,276.6,139.2,277.6,137,274.2L137,274.2z"/>
	<path class="st19" d="M122.4,212.4c0,0,0.7-6.9,35.4-4.5c34.7,2.5,48.5,0.9,52.9,6.8c4.5,5.9,9.3,13.7,9.4,25.3
		c0.1,11.5-0.8,21.4-0.8,21.4l1.9-1c0,0,3.7-24.4-2.5-37.2c-6.2-12.7-11-16.5-30-16.9c-19-0.4-57-2.3-58.7-1.3
		C128.4,206.1,123.1,206,122.4,212.4L122.4,212.4z"/>
	<path class="st19" d="M193.1,323.9c0,0-1.4,17.1,13.8,18.6c15.2,1.5,35.7-0.1,39.2-38.6c3.5-38.4-40.3-11.7-40.3-11.7L193.1,323.9
		L193.1,323.9z"/>
	<path class="st25" d="M231.4,287.5c4.9,0.3,8.3,8.9,7.6,19.3c-0.7,10.3-5.1,18.5-10,18.1c-4.9-0.3-8.3-8.9-7.6-19.3
		C222.1,295.4,226.6,287.2,231.4,287.5L231.4,287.5z"/>
	<path class="st19" d="M230.8,295.8c2.9,0.2,5,5.4,4.6,11.6c-0.4,6.2-3.1,11.2-6,11c-2.9-0.2-5-5.4-4.6-11.6
		C225.2,300.5,227.9,295.6,230.8,295.8L230.8,295.8z"/>
	<path class="st26" d="M232.5,300.6c1.6,0.1,2.8,3,2.6,6.5c-0.2,3.5-1.7,6.2-3.4,6.1c-1.6-0.1-2.8-3-2.6-6.5
		C229.4,303.2,230.9,300.5,232.5,300.6L232.5,300.6z"/>
	<path class="st19" d="M258.3,267c0,0-1,12.4,10,13.5c11,1.1,25.9-0.1,28.5-28c2.6-27.9-26.7-14.9-29.3-8.5L258.3,267L258.3,267z"/>
	<path class="st25" d="M286.1,240.6c3.5,0.2,6,6.5,5.5,14c-0.5,7.5-3.7,13.4-7.3,13.2c-3.5-0.2-6-6.5-5.5-14
		C279.3,246.3,282.6,240.4,286.1,240.6L286.1,240.6z"/>
	<path class="st19" d="M285.7,246.6c2.1,0.1,3.6,3.9,3.3,8.4c-0.3,4.5-2.2,8.1-4.4,8c-2.1-0.1-3.6-3.9-3.3-8.5
		C281.6,250,283.5,246.5,285.7,246.6L285.7,246.6z"/>
	<path class="st26" d="M286.9,250.1c1.2,0.1,2,2.2,1.9,4.7c-0.2,2.5-1.2,4.5-2.4,4.4c-1.2-0.1-2-2.2-1.9-4.7
		C284.6,252,285.7,250,286.9,250.1L286.9,250.1z"/>
	<path class="st19" d="M109,272.2c0,0,12.7,23.6,38.1,24.7c25.4,1.1,37-3.3,42.8-7.2c5.9-3.9,7.4-6,7.4-6s-13.3,22.8-22.6,26.7
		c-9.4,4-42.7,5.6-51-7.3C115.4,290.3,109,272.2,109,272.2L109,272.2z"/>
	<path class="st26" d="M116.3,284.5c0.7,1.4,6.8,24,31.9,25.9c25.1,1.9,33.5-8.3,33.5-8.3l7.2-8.4c0,0-22,9.1-35.3,7.1
		C140.3,298.9,133.8,300.1,116.3,284.5L116.3,284.5z"/>
	<path class="st19" d="M115.5,272.9c0,0-3.9-4-7.6-0.7c-3.7,3.3-1.3,5.9-0.9,7.2c0.5,1.2,0.2-3.5,2.9-5.3
		C112.6,272.2,115.5,272.9,115.5,272.9L115.5,272.9z"/>
	<path class="st18" d="M149.5,251.2c0,0-1.8,1.3,2.7,4.3c4.5,3,3.8,5.8,6.5,6.6c2.7,0.9,8.5-1.4,8.7-4.1c0.2-2.7-6.1-6.9-7.8-7.4
		C157.9,250.1,154.1,247.8,149.5,251.2L149.5,251.2z"/>
	<path class="st26" d="M142.9,251.9c0,0-4.6,1.9-4.8,5.7c-0.2,3.8,0.8,9.9,0.8,9.9s-1.3,1.3-3.2-0.9c-1.9-2.2-3.2-9,0.8-12.9
		C140.5,249.9,144.4,249.8,142.9,251.9L142.9,251.9z"/>
	<path class="st18" d="M179.8,263.4c0,0-4.8,5.4-1.7,7.7c3.1,2.3,8.2,1.2,13.3-0.4c5.1-1.6,9.6-1.6,9.6-1.6s2.2,0.3,4,1.6
		c1.8,1.3,5-2.1,4.6-4.9c-0.3-2.8-7.3-6.5-12-5.8C192.9,260.8,188.8,260,179.8,263.4L179.8,263.4z"/>
	<path class="st18" d="M125.2,259.3c0,0-13.4-5.7-24.5,0.9c-11.1,6.5-9.2,15.1-8.3,19.5c0.9,4.4,0.8,3.2,3.2,3.5
		c2.4,0.3,4.6-4.4,3.2-9.3c-1.4-4.9,0.5-12.9,6.1-12.4c5.7,0.5,14.1,3.3,16.4,2.6C123.6,263.3,125.9,264.3,125.2,259.3L125.2,259.3z
		"/>
	<path class="st27" d="M144.4,268.3c0,0,3.7,1.4,10-0.8c6.3-2.2,10.6-2.9,10.8,1.6c0.2,4.5-6.5,8.6-13.4,9.6
		C144.9,279.7,131.5,269.9,144.4,268.3L144.4,268.3z"/>
	<path class="st26" d="M102.9,265.6c-1.4,0.4-2.9,1.5-2.8,3.4c0.1,1.9,0.4,3.8,1.6,4.2c1.2,0.4,2.6-0.2,3.3-1
		c0.7-0.8,0.9-3.9,0.9-3.9S105.3,265.9,102.9,265.6L102.9,265.6z"/>
	<path class="st26" d="M195.8,271.5c-1.1,0.4-3.4,1.5-3.5,2.9c-0.1,1.4-0.8,3.7,0.6,4.3c1.3,0.6,5.4,1.6,5.4,1.6l2.3-7.1
		C200.7,273.2,198,272.3,195.8,271.5L195.8,271.5z"/>
	<path class="st24" d="M213.7,265.1c0,0-3.2-8.5-17-7.2c-9.8,0.9-17.9,2.3-21.7,3.1c0.1,0.5,0.2,1,0.3,1.4c1-0.1,2-0.3,3.2-0.6
		c8.7-1.9,23.1-4.7,27.8-2C211,262.5,213.7,265.1,213.7,265.1L213.7,265.1z M130.8,255.5c-0.5-0.1-1-0.2-1.4-0.2
		c-7.4-1.3-26.2-5.4-35.5,5.8c-9.3,11.2-7.5,25.5-2.3,35.5c5.3,10,15.4,24,26.8,26.4c11.4,2.3,52.9,3.6,60.5,2.8
		c7.6-0.9,8.2-5.9,8.2-5.9s-2.2,1.5-6.4,3.4c-4.1,1.9-61.4,0.1-68.4-4.3c-7-4.5-23-22.4-23.1-37.7c-0.1-15.3,10.3-26.7,19.9-26.4
		c5.2,0.2,12.7,1,21.1,2.1C130.2,256.4,130.5,255.9,130.8,255.5L130.8,255.5z"/>
	<path class="st23" d="M227,259.8c0,0-22.2-1.4-31.9,20.2c-9.7,21.6-8,41.1-8,41.1s1.2,2,10,2.8c8.8,0.8,18-4,18-4
		s-0.3-31.4,12.9-33.5c13.1-2.1,17.8,19.1,17.8,19.1s8-20.1,2.1-32.6C241.9,260.5,232.1,259.9,227,259.8L227,259.8z"/>
	<path class="st19" d="M212.6,261.6c0,0-10.8,4.7-15.9,14.7c-5.1,9.9-7.8,18.4-8.8,27.9c-1,9.5-0.9,17.1-0.9,17.1s2.2,5.5,15,2.9
		c12.8-2.6,13.1-4.4,13.1-4.4s2.6-30.5,12-32.8c6.6-1.6,10.7,2.1,13.9,7.9c3.2,5.8,4.8,12.2,4.8,12.2s-0.4-13.4-6-18.4
		c-5.6-5-13.9-5.6-18.4-0.4c-4.5,5.1-6.7,18.1-6.9,23c-0.1,4.9-0.2,8.3-0.2,8.3s-15.6,5.1-20.8,3.4c-5.1-1.8-5.4-2.5-5.4-2.5
		s2.2-34.1,9.8-44.1c7.7-10,22-16.8,31.2-15.1c9.3,1.7,17,7.6,18.6,14.3c1.6,6.8,0.2,20.2-0.4,23.2c-0.6,3-0.4,4.1-0.4,4.1
		s11-28.1-4.4-38.7C230.5,255.9,220.3,259.9,212.6,261.6L212.6,261.6z"/>
	<path class="st19" d="M125.4,222.9c0,0,7.5-7.2,15.5-8.1c7.9-0.9,9.5-0.6,9.5-0.6s0-0.2-1.9,3.7c-1.9,3.9-3.1,3.8-3.1,3.8
		S140.4,216.6,125.4,222.9L125.4,222.9z"/>
	<path class="st19" d="M181,215.3c0,0,0.8,6.5,1.3,8.8c0.5,2.3,1.8-2.5,9-1.2c7.2,1.3,15.9,6.9,15.9,6.9s-2.6-6.4-10-10.7
		C189.8,214.7,181,215.3,181,215.3L181,215.3z"/>
	<path class="st18" d="M237,267.2c-4-1.7-19.5-7.1-33.1,8.3c-13.6,15.4-11.2,35-11.5,39.6c-0.3,4.6,2.1,5.2,5,5.4
		c2.9,0.2,6.6-0.1,6.1-3.5c-0.5-3.4,4.5-33.2,11.9-38.6c7.4-5.4,14.9-5.9,21.1-3.3c6.2,2.6,7.8,7.8,9.1,10.5
		c1.3,2.8,2.3-1.3,1.1-6.5C245.6,274.1,244.3,270.9,237,267.2L237,267.2z"/>
	<path class="st19" d="M224.3,211.3c-2.5,7.5,0.8,22.1,2.2,30.3c1.1,6.1-0.3,11.6,3.4,11.4c3.7-0.2,12.2-7.7,14.6-8.5
		c2.5-0.8,4.3-6.8,3.1-15.1c-1.2-8.3-4-25.3-4-25.3s-3.2-3.8-9.7,0.1C227.4,208.1,227.4,207.8,224.3,211.3L224.3,211.3z"/>
	<path class="st20" d="M225.7,212.2c-2.2,6.6,0.7,19.4,1.9,26.5c0.9,5.4,0.2,11.9,3.4,11.7c3.2-0.2,10.2-6.8,12.3-7.5
		c2.2-0.7,3.9-7.6,2.9-14.9c-1-7.3-2.8-18.2-3.1-20.4c-0.3-2.2-3.1-5.1-8.9-1.6C228.4,209.4,228.4,209.2,225.7,212.2L225.7,212.2z"
		/>
	<path class="st19" d="M261.4,186.4l-13.5,9.6c0,0-3.4-0.5-1.1,9.9c2.3,10.3,4.2,18.5,4.9,22.9c0.7,4.4,0.1,6.6,2.5,7.2
		c2.4,0.6,8.7-7,11.5-8.3c2.8-1.3,7.5-3.4,5.6-15.9c-1.9-12.5-4.8-23.1-4.8-23.1S265.4,184.2,261.4,186.4L261.4,186.4z"/>
	<path class="st20" d="M260.4,188.9l-11.3,8.1c0,0-2.8-0.4-0.9,8.3c1.9,8.7,3.5,15.5,4.1,19.3c0.6,3.7,0.6,8.2,2.6,8.8
		c2,0.5,8.3-6,10.6-7.1c2.3-1.1,6.8-6,4.2-16.8c-2.5-10.8-5.1-18.6-5.1-18.6S263.8,187.1,260.4,188.9L260.4,188.9z"/>
	<path class="st19" d="M279.9,169.4l-9.3,8.2c0,0-3.9,0.7-2,8.9c1.9,8.1,4.7,17.3,5.6,22.5c0.9,5.2,1.7,7.9,5.3,5
		c3.6-2.9,10.8-10.2,10.8-10.2s4.5-2.6,1.1-17.2c-3.4-14.6-5.4-14.9-6.5-16.2C283.8,168.9,282.9,168.3,279.9,169.4L279.9,169.4z"/>
	<path class="st20" d="M280.2,171.5l-8,7c-0.6,0.6-3.4,0.6-1.7,7.6c1.6,7,4.1,14.9,4.8,19.3c0.8,4.4,1.3,8.7,4.4,6.2
		c3.1-2.5,10.1-9.5,10.1-9.5s3.3-3.5,0.3-16c-3-12.5-4.6-12.8-5.6-13.9C283.6,171,282.8,170.6,280.2,171.5L280.2,171.5z"/>
	<path class="st23" d="M296,234.3c0,0-5.2-13.2-19.2-10.9c-14,2.3-21,17.4-22.5,29.2c-1.5,11.8,0.6,17.3,2.9,19.9
		c2.3,2.6,6.2,2.6,9.6,1.1c3.5-1.5,6-6.2,5-9.9c-1-3.7-2.3-21.8,7.6-24.5c9.9-2.8,13,1.8,14.8,3.6
		C296.1,244.5,299.6,241.8,296,234.3L296,234.3z"/>
	<path class="st18" d="M284.3,231.1c-11,0.9-16.3,13.3-16.3,23c0,8,0.4,12.9-2.1,13.7c-2.5,0.8-8.1,1.4-8.2-1
		c-0.1-2.4-1.6-21.2,8.5-31C276.3,226,288.5,229,284.3,231.1L284.3,231.1z"/>
	<path class="st19" d="M297.8,239.3c-3.5-11.3-10.3-14.8-18-15.6c-7.7-0.8-16.7,6.3-22.4,19.7c-5.7,13.5,0,28.2,0,28.2
		s0.1,0.8-1.3-0.7c-1.4-1.5-1.7-4.1-2.3-8.8c-0.6-4.8,0.5-17.8,4.8-24.8c4.3-7,13-17.3,25.4-14.1c12.4,3.2,13.7,16.9,13.7,16.9
		L297.8,239.3L297.8,239.3z"/>
	<path class="st19" d="M297.4,246.2c0,0,1.9-3.7,3.5-8.2c1.7-4.5,3.8-7.7,3.8-7.7s3-0.6,3.8-9c0.8-8.4-1.4-17.3-3.8-21.8
		c-2.4-4.5-6.4-10.5-7.6-13c-1.2-2.5-2.6-11.1-6.8-22c-4.2-10.9-6.5-14.1-16-14.7c-9.5-0.6-48.9-7.7-55.7-7.9
		c-6.8-0.2-12.6,0.8-12.6,0.8s7.4,0.2,19.6,1.5c12.2,1.3,43,6,46.2,6.8c3.2,0.8,10.7-1.2,15,9.1c4.3,10.4,6,21.1,9,26.5
		c2.9,5.4,7.7,12.2,9.7,19.2c2,6.9,3.1,15.5,1.3,18.6c-1.8,3.2-6.4,11.3-7.2,14.3C298.8,241.6,297.2,249.2,297.4,246.2L297.4,246.2z
		"/>
	<path class="st18" d="M247,245.2c0,0-0.7,7.1,0.8,13.7c1.5,6.6,2.9,18.5,2.9,18.5s1.9-4,0.3-13.1c-1.6-9.1-1.9-13.5-2.2-16.5
		C248.4,244.7,247,245.2,247,245.2L247,245.2z"/>
	<polygon class="st19" points="228.2,144.5 225,122.4 197.3,122.3 175.7,134.3 179.7,158.1 208.2,157.5 228.2,144.5 	"/>
	<path class="st28" d="M198.6,124c0,0-20.1,10.5-18.5,10.3c1.7-0.2,22.7,0.3,22.7,0.3l18.5-10.6L198.6,124L198.6,124z"/>
	<polygon class="st28" points="179.4,135.9 202.4,137.4 203.8,153.9 181.9,153.6 179.4,135.9 	"/>
	<polygon class="st28" points="222,125.5 204.1,136.1 207,154.7 224.6,141.8 222,125.5 	"/>
	<polygon class="st19" points="204.8,142.2 166.8,141.7 137.4,155.7 141.5,189.7 190.8,189.8 208.8,173.7 204.8,142.2 	"/>
	<path class="st29" d="M165.2,145.1l-22.8,10.1l40.5,0.4l15.7-10.2C198.6,145.4,164.9,145.4,165.2,145.1L165.2,145.1z"/>
	<polygon class="st29" points="140,158.1 143.6,187.3 187.4,187.4 182.1,158.8 140,158.1 	"/>
	<path class="st29" d="M185.5,156.9l4.7,29.1l20.5-12.4l-6.8-26.7C204,146.8,185.8,156.9,185.5,156.9L185.5,156.9z"/>
	<polygon class="st19" points="272,136.3 230.3,133.7 196.9,159.2 198.1,191.6 243.5,192.9 272.8,158.3 272,136.3 	"/>
	<polygon class="st18" points="217.9,147.4 201.8,158.7 245,161.2 256.4,150.1 217.9,147.4 	"/>
	<polygon class="st18" points="200.3,161.9 242.8,164.9 241.7,190.6 200.8,188.5 200.3,161.9 	"/>
	<polygon class="st18" points="258.1,153.5 246.8,162.9 245.2,187.8 258.5,172.2 258.1,153.5 	"/>
	<polygon class="st18" points="261.2,147.7 261.7,168.8 270.7,157.6 270.2,139.2 261.2,147.7 	"/>
	<polygon class="st18" points="222.2,144.1 257.7,146.6 265.9,138.7 230.6,137 222.2,144.1 	"/>
</g>
</svg>
