<?xml version="1.0" encoding="utf-8"?>
<!-- Generator: Adobe Illustrator 19.0.0, SVG Export Plug-In . SVG Version: 6.00 Build 0)  -->
<svg version="1.1" xmlns="http://www.w3.org/2000/svg" xmlns:xlink="http://www.w3.org/1999/xlink" x="0px" y="0px"
	 viewBox="0 0 283.5 283.5" style="enable-background:new 0 0 283.5 283.5;" xml:space="preserve">
<style type="text/css">
	.st0{fill:#333333;}
</style>
<g id="Warstwa_2">
</g>
<g id="Warstwa_1">
	<g id="XMLID_3_">
		<path id="XMLID_5_" class="st0" d="M267.7,246.5l-63.2-63.2c-5.3,6.9-11.5,13.1-18.4,18.4l63.1,63.1c5.1,5.1,13.3,5.1,18.4,0
			C272.7,259.8,272.7,251.6,267.7,246.5z"/>
		<path id="XMLID_8_" class="st0" d="M210.5,116.2h-9c0,11-2.2,21.4-6.2,30.9c-6,14.3-16.1,26.4-28.8,35
			c-12.7,8.6-27.9,13.6-44.4,13.6c-11,0-21.4-2.2-30.9-6.2c-14.3-6-26.4-16.1-35-28.8c-8.6-12.7-13.6-27.9-13.6-44.4
			c0-11,2.2-21.4,6.2-30.9c6-14.3,16.1-26.4,28.8-35c12.7-8.6,27.9-13.6,44.4-13.6c11,0,21.4,2.2,30.9,6.2c14.3,6,26.4,16.1,35,28.8
			c8.6,12.7,13.6,27.9,13.6,44.4H210.5h9c0-13.4-2.7-26.3-7.7-38c-7.4-17.5-19.8-32.4-35.3-42.9C161,24.9,142.2,18.7,122,18.7
			c-13.4,0-26.3,2.7-38,7.7c-17.5,7.4-32.4,19.8-42.9,35.3c-10.5,15.6-16.7,34.4-16.7,54.5c0,13.4,2.7,26.3,7.7,38
			c7.4,17.5,19.8,32.4,35.3,42.9c15.6,10.5,34.4,16.7,54.5,16.7c13.4,0,26.3-2.7,38-7.7c17.5-7.4,32.4-19.8,42.9-35.3
			c10.5-15.6,16.7-34.4,16.7-54.5H210.5z"/>
		<path id="XMLID_10_" class="st0" d="M131.5,63.7c6.1,0,11.9,1.2,17.1,3.5c7.9,3.3,14.6,8.9,19.4,16c4.7,7,7.5,15.5,7.5,24.6
			c0,4.4,3.6,8,8,8c4.4,0,8-3.6,8-8c0-8.3-1.7-16.2-4.7-23.4C182.2,73.6,174.6,64.5,165,58c-9.6-6.5-21.2-10.3-33.6-10.3
			c-4.4,0-8,3.6-8,8C123.5,60.2,127.1,63.7,131.5,63.7L131.5,63.7z"/>
	</g>
</g>
</svg>
